<?xml version="1.0" encoding="utf-8"?>
<!-- Generator: Adobe Illustrator 19.2.1, SVG Export Plug-In . SVG Version: 6.00 Build 0)  -->
<svg version="1.1" id="layer" xmlns="http://www.w3.org/2000/svg" xmlns:xlink="http://www.w3.org/1999/xlink" x="0px" y="0px"
	 viewBox="0 0 652 652" style="enable-background:new 0 0 652 652;" xml:space="preserve">
<style type="text/css">
	.st0{fill:#305094;}
	.st1{fill:#D8D9EA;}
</style>
<g>
	<path class="st0" d="M207,321.8V321c0.3-0.1,0.7-0.3,1.2-0.6c0.2-0.1,0.4-0.2,0.4-0.3c0-0.1,0.1-0.1,0.1-0.2c0.1-0.3,0.1-1.3,0.2-3
		c0-1.7,0.1-3.7,0.1-6.1c0-3.5,0-5.6,0-6.5c0-2.1-0.1-3.3-0.2-3.6c0-0.1-0.1-0.2-0.2-0.3c-0.3-0.2-1.1-0.3-2.5-0.3v-1.5
		c1.4,0.1,3,0.1,4.8,0.1c2,0,3.9,0,5.7-0.1v1.5c-1.3,0.1-2,0.2-2.3,0.3c-0.1,0.1-0.2,0.2-0.3,0.3c-0.1,0.1-0.1,0.8-0.2,2
		c-0.1,1.2-0.1,2.8-0.1,4.6c0,0.2,0,1.8,0,4.8c0,1.6,0,3.1,0,4.7c0,1.6,0,2.5,0,2.8c1.5,0.1,2.6,0.1,3.1,0.1c1.7,0,3.1-0.1,4.4-0.3
		c0.5-0.1,0.7-0.1,0.8-0.2c0.1-0.1,0.2-0.3,0.3-0.6c0.2-0.8,0.4-1.8,0.6-2.9h1.4c0,0.3,0,0.5,0,0.5l-0.4,3.3c-0.1,1-0.1,1.7-0.2,1.9
		c-0.3,0.1-0.6,0.1-1,0.2c-0.7,0.1-1.7,0.1-3.1,0.1c-0.2,0-1.5,0-3.9-0.1c-1.8,0-3.1-0.1-3.8-0.1C210.9,321.7,209.2,321.7,207,321.8
		"/>
	<path class="st0" d="M240.8,319.3l-0.7,1.6c-0.9,0.6-1.8,1-2.8,1.2c-0.7,0.2-1.5,0.3-2.5,0.3c-1.1,0-2.1-0.1-2.9-0.4
		c-0.8-0.3-1.5-0.6-2.1-1c-0.6-0.4-1.1-1-1.6-1.6c-0.4-0.6-0.8-1.4-1-2.2c-0.2-0.8-0.3-1.8-0.3-2.8c0-1.4,0.2-2.7,0.6-3.9
		c0.3-0.8,0.6-1.4,0.9-1.7c0.2-0.2,0.8-0.6,1.7-1.2c0.9-0.6,1.6-1,2-1.2c0.8-0.3,1.7-0.5,2.7-0.5c1.5,0,2.7,0.3,3.6,0.9
		c1,0.6,1.6,1.4,2,2.4c0.4,1,0.6,2.1,0.6,3.5c0,0.3,0,0.6,0,0.9c-0.3,0.1-0.7,0.2-1.3,0.3c-0.8,0.1-1.3,0.2-1.5,0.2
		c-0.8,0.1-1.9,0.1-3.3,0.1c-1.4,0-2.1,0-2.3,0c-0.1,0-0.3,0-0.5,0h-1.1c0.1,1.7,0.6,3.1,1.6,4.1c1,1,2.2,1.5,3.7,1.5
		c0.6,0,1.2-0.1,1.7-0.2c0.5-0.1,1.2-0.4,2.1-0.9L240.8,319.3z M236.8,312.4c0-1.8-0.2-3-0.7-3.7c-0.5-0.7-1.2-1-2.1-1
		c-0.9,0-1.6,0.4-2.1,1.1c-0.6,0.7-0.8,2-0.8,3.6c0.7,0.1,1.7,0.1,3.3,0.1C235.4,312.6,236.2,312.5,236.8,312.4"/>
	<path class="st0" d="M258.5,320.6v1.2c-1.3-0.1-2.4-0.1-3.4-0.1c-0.9,0-1.8,0-2.7,0.1l-0.1-0.2l0.1-2.2c-0.4,0.3-1.6,1.1-3.5,2.6
		c-0.5,0.1-1,0.2-1.4,0.2c-1.2,0-2.1-0.4-2.8-1.1c-0.7-0.7-1-1.7-1-3c0-0.9,0.2-1.6,0.5-2.2c0.3-0.6,0.6-1,1-1.3
		c0.3-0.3,0.9-0.5,1.6-0.8c1.7-0.6,3.7-1.1,5.7-1.5c0-1.3-0.2-2.3-0.8-3c-0.6-0.7-1.4-1-2.6-1c-0.5,0-0.9,0.1-1.4,0.2
		c-0.2,0.1-0.4,0.2-0.7,0.3l-0.7,1.7l-1.1-0.2l0.1-2.1c0.8-0.6,1.6-1,2.3-1.4c0.7-0.4,1.3-0.7,1.6-0.7c0.4-0.1,1-0.2,1.7-0.2
		c1.2,0,2.2,0.2,3,0.5c0.8,0.3,1.4,0.8,1.7,1.2c0.4,0.5,0.6,1,0.8,1.5c0.1,0.5,0.2,1.2,0.2,2.1c0,0.4,0,1.3-0.1,2.8c0,1,0,1.8,0,2.4
		c0,2,0.1,3.2,0.2,3.6c0,0.2,0.1,0.3,0.3,0.4C257,320.5,257.5,320.5,258.5,320.6 M252.4,313.8c-0.9,0.2-1.8,0.4-2.6,0.7
		c-0.8,0.3-1.3,0.6-1.6,1c-0.3,0.4-0.4,0.9-0.4,1.6c0,0.7,0.2,1.3,0.5,1.6c0.4,0.4,0.8,0.6,1.4,0.6c0.5,0,1-0.1,1.5-0.4
		c0.5-0.3,0.9-0.7,1.2-1.1V313.8z"/>
	<path class="st0" d="M279.2,320.6v1.3c-1.5-0.1-2.7-0.1-3.7-0.1c-1.1,0-2,0-2.8,0.1l-0.3-0.3c0-0.2,0.1-1.2,0.2-2.9l0.1-2.7v-1.3
		c0-1.9-0.1-3.2-0.2-3.8c-0.1-0.6-0.5-1.1-0.9-1.5s-1.1-0.6-1.9-0.6c-0.8,0-1.4,0.2-1.9,0.6s-0.8,0.7-1,1.1
		c-0.1,0.2-0.1,1.1-0.1,2.7v2.8c0,0.8,0,1.8,0.1,3c0,0.5,0.1,0.9,0.1,1c0.1,0.1,0.1,0.2,0.2,0.3c0.1,0.1,0.4,0.2,0.8,0.3
		c0.1,0,0.6,0.1,1.4,0.1v1.3c-1.2,0-2.7-0.1-4.4-0.1c-2,0-3.6,0-4.7,0.1v-1.3c0.9,0,1.5-0.1,1.8-0.2c0.2-0.1,0.3-0.2,0.3-0.3
		c0.1-0.2,0.2-0.6,0.2-1.2l0.1-1.5c0-0.3,0-0.8,0-1.5v-2.2c0-1,0-2.2-0.1-3.6c0-0.7-0.1-1.1-0.1-1.2c-0.1-0.1-0.2-0.2-0.3-0.2
		c-0.2-0.1-0.8-0.1-1.9-0.2v-1.3c2-0.3,3.3-0.6,4-0.8c0.6-0.2,1.3-0.4,2.1-0.8l0.4,0.2v2.7l3-2.4c0.4-0.1,0.7-0.2,0.9-0.3
		c0.2,0,0.6-0.1,1-0.1c1.2,0,2.1,0.1,2.7,0.4c0.6,0.3,1.1,0.6,1.5,1.1c0.4,0.5,0.7,1,0.9,1.5c0.2,0.5,0.3,1.3,0.3,2.5
		c0,1.3,0,2.1,0,2.4c0,0.1,0,0.3,0,0.5l0,1.7c0,1.9,0,3,0.1,3.5c0,0.4,0.1,0.7,0.3,0.9c0.2,0.1,0.5,0.2,1,0.2
		C278.5,320.5,278.8,320.5,279.2,320.6"/>
	<path class="st0" d="M311.9,318.8l-0.8,1.7c-1.4,0.7-2.6,1.2-3.7,1.5c-1.1,0.3-2.5,0.4-4.1,0.4c-2.3,0-4.4-0.4-6.2-1.1
		c-1.4-0.6-2.6-1.4-3.6-2.4c-1-1-1.7-2-2.3-3.2c-0.8-1.7-1.2-3.6-1.2-5.6c0-3.5,1.2-6.3,3.6-8.5c2.4-2.2,5.7-3.3,10.1-3.3
		c1.5,0,2.8,0.1,4,0.3c1.2,0.2,2.6,0.6,4.1,1.2l0.1,0.2c-0.2,0.5-0.3,1.2-0.4,2c-0.2,1.3-0.3,2.4-0.3,3.5h-1.3
		c0-1.2-0.1-2.2-0.2-2.9c-0.7-0.8-1.6-1.4-2.5-1.7c-0.9-0.4-2.1-0.6-3.5-0.6c-2.6,0-4.7,0.8-6.2,2.5c-1.6,1.6-2.3,3.9-2.3,6.9
		c0,1.8,0.3,3.3,0.8,4.7c0.5,1.3,1.2,2.4,2.1,3.3c0.9,0.9,1.8,1.5,2.6,1.9c1.2,0.5,2.7,0.8,4.4,0.8c1.1,0,2.2-0.1,3.2-0.4
		c1-0.3,2.1-0.7,3.3-1.3L311.9,318.8z"/>
	<path class="st0" d="M314.2,314c0-1.9,0.3-3.4,1-4.7c0.6-1.2,1.6-2.2,2.9-2.8c1.3-0.6,2.8-0.9,4.5-0.9c2.6,0,4.5,0.7,5.8,2
		c1.3,1.3,2,3.3,2,5.9c0,1.5-0.2,2.8-0.6,3.9c-0.4,1.1-0.9,2-1.6,2.6c-0.7,0.7-1.3,1.2-2.1,1.5c-1.2,0.6-2.6,0.9-4.1,0.9
		c-2.5,0-4.4-0.7-5.8-2.1C314.8,318.9,314.2,316.8,314.2,314 M318.8,313.2c0,2.9,0.4,5,1.3,6.3c0.6,0.8,1.4,1.2,2.5,1.2
		c0.9,0,1.6-0.3,2.2-0.9c0.7-0.8,1.1-2.5,1.1-4.9c0-1.7-0.1-3.1-0.4-4.3c-0.3-1.2-0.7-2.1-1.2-2.5c-0.5-0.5-1.2-0.7-2-0.7
		c-0.7,0-1.2,0.2-1.7,0.5s-0.9,0.9-1.2,1.8C318.9,310.4,318.8,311.6,318.8,313.2"/>
	<path class="st0" d="M351.7,320.6v1.3c-1.5-0.1-2.7-0.1-3.7-0.1c-1.1,0-2,0-2.8,0.1l-0.3-0.3c0-0.2,0.1-1.2,0.2-2.9l0.1-2.7v-1.3
		c0-1.9-0.1-3.2-0.2-3.8c-0.1-0.6-0.5-1.1-0.9-1.5c-0.5-0.4-1.1-0.6-1.9-0.6c-0.8,0-1.4,0.2-1.9,0.6c-0.5,0.4-0.8,0.7-1,1.1
		c-0.1,0.2-0.1,1.1-0.1,2.7v2.8c0,0.8,0,1.8,0.1,3c0,0.5,0.1,0.9,0.1,1c0.1,0.1,0.1,0.2,0.2,0.3c0.1,0.1,0.4,0.2,0.8,0.3
		c0.1,0,0.6,0.1,1.4,0.1v1.3c-1.2,0-2.7-0.1-4.4-0.1c-2,0-3.6,0-4.7,0.1v-1.3c0.9,0,1.5-0.1,1.8-0.2c0.2-0.1,0.3-0.2,0.3-0.3
		c0.1-0.2,0.2-0.6,0.2-1.2l0.1-1.5c0-0.3,0-0.8,0-1.5v-2.2c0-1,0-2.2-0.1-3.6c0-0.7-0.1-1.1-0.1-1.2c-0.1-0.1-0.2-0.2-0.3-0.2
		c-0.2-0.1-0.8-0.1-1.9-0.2v-1.3c2-0.3,3.3-0.6,4-0.8c0.6-0.2,1.3-0.4,2.1-0.8l0.4,0.2v2.7l3-2.4c0.4-0.1,0.7-0.2,0.9-0.3
		c0.2,0,0.6-0.1,1-0.1c1.2,0,2.1,0.1,2.7,0.4c0.6,0.3,1.1,0.6,1.5,1.1c0.4,0.5,0.7,1,0.9,1.5c0.2,0.5,0.3,1.3,0.3,2.5
		c0,1.3,0,2.1,0,2.4c0,0.1,0,0.3,0,0.5l0,1.7c0,1.9,0,3,0.1,3.5c0,0.4,0.1,0.7,0.3,0.9c0.2,0.1,0.5,0.2,1,0.2
		C350.9,320.5,351.2,320.5,351.7,320.6"/>
	<path class="st0" d="M354.1,316.6h1.3c0.1,1.2,0.1,2,0.2,2.3c0.5,0.6,1,1.1,1.6,1.4c0.6,0.3,1.3,0.4,2.1,0.4c1,0,1.8-0.3,2.4-0.7
		c0.6-0.5,0.8-1.1,0.8-1.8c0-0.5-0.1-0.8-0.3-1.2c-0.2-0.3-0.5-0.6-1.1-0.8c-0.4-0.2-1.3-0.4-2.5-0.6c-1.2-0.3-2.1-0.6-2.8-0.9
		c-0.6-0.3-1.1-0.8-1.5-1.4c-0.4-0.6-0.5-1.4-0.5-2.2c0-1.5,0.6-2.8,1.7-3.8c1.1-1,2.8-1.5,5-1.5c0.9,0,1.7,0.1,2.5,0.2
		c0.8,0.2,1.4,0.4,2,0.7l0,0.2c-0.1,0.4-0.1,0.8-0.1,1.2c0,0.4-0.1,1.3-0.1,2.8l-1.3,0c0-0.1,0-0.3,0-0.6c0-0.5-0.1-1-0.2-1.4
		c-0.3-0.4-0.8-0.8-1.3-1c-0.5-0.2-1.1-0.3-1.8-0.3c-0.9,0-1.7,0.2-2.2,0.6c-0.5,0.4-0.8,0.9-0.8,1.5c0,0.6,0.1,1,0.3,1.3
		c0.2,0.3,0.6,0.5,1,0.6c0.5,0.1,1.3,0.3,2.5,0.6c1.2,0.2,2,0.4,2.5,0.6c0.6,0.2,1.1,0.5,1.5,0.9c0.4,0.4,0.6,0.8,0.8,1.3
		c0.2,0.5,0.3,1.1,0.3,1.7c0,1.6-0.6,3-1.9,4.2c-1.3,1.1-3.1,1.7-5.4,1.7c-0.8,0-1.5-0.1-2.3-0.2c-0.7-0.1-1.6-0.4-2.7-0.8l-0.2-0.2
		c0.1-0.9,0.1-1.5,0.2-1.8L354.1,316.6z"/>
	<path class="st0" d="M368.2,309.2v-0.7l1.5-0.9c0.2-0.2,0.5-0.3,0.7-0.5v-2.2c0-0.8,0-1.8-0.1-3c1.1-0.4,1.8-0.6,2.1-0.7
		c0.1,0,0.8-0.3,2.1-1l0.4,0.3l-0.2,1.7l-0.1,1.9l-0.2,2.9h0.5c1.5,0,2.6-0.1,3.3-0.2l-0.3,2.2c-0.1,0-0.3,0-0.4,0l-1.6,0h-1.6v5.5
		c0,1.7,0,2.7,0.1,3c0,0.5,0.2,0.9,0.6,1.2c0.3,0.3,0.8,0.4,1.4,0.4c0.4,0,0.7,0,0.9,0s0.5-0.1,0.9-0.2l0.3,0.7l-0.6,0.6
		c-0.5,0.5-0.9,0.9-1.3,1.3c-0.4,0.2-0.8,0.3-1.2,0.4c-0.3,0.1-0.7,0.1-1,0.1c-1.3,0-2.3-0.3-3-1c-0.7-0.7-1.1-1.5-1.1-2.5l0.1-5.5
		v-4.1h-0.4C369.3,309.2,368.7,309.2,368.2,309.2"/>
	<path class="st0" d="M389.2,320.6v1.3c-1.2-0.1-2.6-0.1-4.2-0.1c-1.7,0-3.5,0-5.3,0.1v-1.3c0.9,0,1.5-0.1,1.8-0.2
		c0.2-0.1,0.3-0.2,0.3-0.3c0.1-0.2,0.2-0.6,0.2-1.2l0.1-1.5c0-0.3,0-0.8,0-1.5v-2.2c0-1,0-2.2-0.1-3.6c0-0.7-0.1-1.1-0.1-1.2
		c-0.1-0.1-0.2-0.2-0.3-0.2c-0.2-0.1-0.8-0.1-1.9-0.2v-1.3c2-0.3,3.3-0.6,4-0.8c0.6-0.2,1.3-0.4,2.1-0.8l0.4,0.2l0,3.3
		c0.7-0.7,1.3-1.4,1.7-1.8c0.6-0.7,1-1.1,1.3-1.3c0.4-0.3,0.9-0.4,1.6-0.4c0.4,0,0.8,0.1,1.1,0.2l-0.1,2.4c0,1.3-0.1,2-0.1,2.2
		l-0.7,0.2c-0.3-0.4-0.5-0.6-0.8-0.8c-0.4-0.2-0.9-0.3-1.3-0.3c-0.7,0-1.2,0.2-1.7,0.6c-0.5,0.4-0.7,0.8-0.8,1.2
		c0,0.2-0.1,1.2-0.1,2.8v1.7l0,2.3c0,0.8,0,1.4,0.1,1.6c0,0.2,0.2,0.3,0.3,0.5c0.2,0.1,0.6,0.2,1.1,0.2L389.2,320.6z"/>
	<path class="st0" d="M392.8,308.6v-1.3c1-0.1,1.9-0.2,2.9-0.4c1-0.2,2.2-0.6,3.7-1.1l0.2,0.2c-0.2,2.2-0.2,4.2-0.2,6.1v1.9
		c0,1.6,0,2.6,0.1,3.2c0.1,0.7,0.4,1.2,0.8,1.6c0.4,0.4,1,0.5,1.7,0.5c0.8,0,1.5-0.2,2-0.6c0.5-0.4,0.9-0.8,1.1-1.3
		c0.1-0.3,0.2-0.9,0.2-1.8v-2.8l0-2.4c0-0.8,0-1.2-0.1-1.4c-0.1-0.1-0.2-0.2-0.3-0.2c-0.2-0.1-0.8-0.1-2-0.2v-1.3
		c1.7-0.2,2.9-0.4,3.5-0.5c0.6-0.1,1.7-0.4,3.1-0.9l0.3,0.2l-0.2,3c-0.1,2.2-0.1,3.4-0.1,3.6v3.4c0,2,0,3.3,0.1,3.7
		c0,0.2,0.1,0.3,0.3,0.4c0.2,0.1,0.9,0.2,2,0.2v1.3l-3.4-0.1l-3.1,0.1l-0.1-0.1l0.1-1.3c0-0.2,0-0.6,0-1.3c-0.4,0.3-0.8,0.7-1.1,0.9
		l-1.9,1.8c-0.8,0.3-1.5,0.4-2.3,0.4c-1.5,0-2.7-0.4-3.5-1.2c-0.9-0.8-1.3-1.9-1.3-3.3c0-0.2,0-0.8,0-1.8c0-0.6,0-1.3,0-2.2l0-3.5
		c0-0.6,0-1-0.1-1.2c-0.1-0.2-0.2-0.3-0.4-0.3C394.5,308.7,393.9,308.6,392.8,308.6"/>
	<path class="st0" d="M426.9,319.7l-0.7,1.6c-1,0.5-1.7,0.8-2.3,0.9c-0.6,0.1-1.3,0.2-2.1,0.2c-1.8,0-3.3-0.4-4.4-1.1
		c-1.1-0.7-2-1.7-2.6-3c-0.4-0.9-0.6-2.2-0.6-3.7c0-1.2,0.1-2.1,0.3-2.9c0.2-0.7,0.5-1.4,0.9-2c0.3-0.4,0.6-0.7,1.1-1.1l2.5-1.6
		c0.9-0.6,1.5-0.9,1.8-1c0.5-0.2,1.2-0.3,2.1-0.3c0.7,0,1.4,0.1,2,0.2c0.6,0.1,1.2,0.3,1.7,0.5l0.2,0.3l-0.4,2.7
		c0,0.2-0.1,1-0.2,2.3h-1.3c-0.1-1-0.1-1.7-0.2-2.2c-0.2-0.4-0.6-0.7-1.1-0.9c-0.5-0.2-1.1-0.4-1.8-0.4c-0.8,0-1.5,0.2-2,0.5
		c-0.5,0.3-0.9,0.8-1.1,1.6c-0.2,0.7-0.3,1.6-0.3,2.7c0,1.4,0.2,2.6,0.7,3.7c0.5,1.1,1.1,1.9,1.9,2.4c0.8,0.5,1.7,0.8,2.9,0.8
		c0.5,0,1-0.1,1.5-0.2c0.5-0.1,0.9-0.3,1.3-0.5L426.9,319.7z"/>
	<path class="st0" d="M428.5,309.2v-0.7l1.5-0.9c0.2-0.2,0.5-0.3,0.7-0.5v-2.2c0-0.8,0-1.8-0.1-3c1.1-0.4,1.8-0.6,2.1-0.7
		c0.1,0,0.8-0.3,2.1-1l0.4,0.3l-0.2,1.7l-0.1,1.9l-0.2,2.9h0.5c1.5,0,2.6-0.1,3.3-0.2l-0.3,2.2c-0.1,0-0.3,0-0.4,0l-1.6,0h-1.6v5.5
		c0,1.7,0,2.7,0.1,3c0,0.5,0.2,0.9,0.6,1.2c0.3,0.3,0.8,0.4,1.4,0.4c0.4,0,0.7,0,0.9,0c0.2,0,0.5-0.1,0.9-0.2l0.3,0.7l-0.6,0.6
		c-0.5,0.5-0.9,0.9-1.3,1.3c-0.4,0.2-0.8,0.3-1.1,0.4c-0.3,0.1-0.7,0.1-1,0.1c-1.3,0-2.3-0.3-3-1c-0.7-0.7-1.1-1.5-1.1-2.5l0.1-5.5
		v-4.1h-0.4C429.6,309.2,429,309.2,428.5,309.2"/>
	<path class="st0" d="M440.1,321.8v-1.2c1.2-0.1,1.9-0.2,2.1-0.3c0.2-0.1,0.3-0.3,0.3-0.6c0.1-0.6,0.2-2.2,0.2-4.7
		c0-3.5,0-5.4-0.1-5.9c0-0.2-0.1-0.4-0.2-0.4c-0.2-0.1-1-0.2-2.3-0.2v-1.3c1.7-0.2,2.9-0.4,3.8-0.6c0.9-0.2,1.8-0.5,2.8-0.9l0.4,0.2
		c-0.1,1.7-0.2,3.3-0.2,4.9v5.6c0,1.9,0,3.1,0.1,3.4c0,0.2,0.1,0.3,0.3,0.4c0.3,0.1,1,0.2,2.2,0.3v1.3c-1.6,0-3.3-0.1-5.1-0.1
		C442.8,321.8,441.4,321.8,440.1,321.8 M444.7,297.8c0.7,0,1.3,0.2,1.8,0.7c0.5,0.5,0.7,1.1,0.7,1.8c0,0.7-0.2,1.3-0.7,1.8
		c-0.5,0.5-1.1,0.7-1.8,0.7c-0.7,0-1.3-0.2-1.8-0.7c-0.5-0.5-0.8-1.1-0.8-1.8c0-0.7,0.2-1.3,0.7-1.8
		C443.4,298.1,444,297.8,444.7,297.8"/>
	<path class="st0" d="M451.7,314c0-1.9,0.3-3.4,1-4.7c0.6-1.2,1.6-2.2,2.9-2.8c1.3-0.6,2.8-0.9,4.5-0.9c2.6,0,4.5,0.7,5.8,2
		c1.3,1.3,2,3.3,2,5.9c0,1.5-0.2,2.8-0.6,3.9c-0.4,1.1-0.9,2-1.6,2.6c-0.7,0.7-1.3,1.2-2.1,1.5c-1.2,0.6-2.6,0.9-4.1,0.9
		c-2.5,0-4.4-0.7-5.8-2.1C452.4,318.9,451.7,316.8,451.7,314 M456.3,313.2c0,2.9,0.4,5,1.3,6.3c0.6,0.8,1.4,1.2,2.5,1.2
		c0.9,0,1.6-0.3,2.2-0.9c0.7-0.8,1.1-2.5,1.1-4.9c0-1.7-0.1-3.1-0.4-4.3c-0.3-1.2-0.7-2.1-1.2-2.5c-0.5-0.5-1.2-0.7-2-0.7
		c-0.7,0-1.2,0.2-1.7,0.5c-0.5,0.3-0.9,0.9-1.2,1.8C456.5,310.4,456.3,311.6,456.3,313.2"/>
	<path class="st0" d="M489.2,320.6v1.3c-1.5-0.1-2.7-0.1-3.7-0.1c-1.1,0-2,0-2.8,0.1l-0.3-0.3c0-0.2,0.1-1.2,0.2-2.9l0.1-2.7v-1.3
		c0-1.9-0.1-3.2-0.2-3.8c-0.1-0.6-0.5-1.1-0.9-1.5c-0.5-0.4-1.1-0.6-1.9-0.6c-0.8,0-1.4,0.2-1.9,0.6c-0.5,0.4-0.8,0.7-1,1.1
		c-0.1,0.2-0.1,1.1-0.1,2.7v2.8c0,0.8,0,1.8,0.1,3c0,0.5,0.1,0.9,0.1,1c0.1,0.1,0.1,0.2,0.2,0.3c0.1,0.1,0.4,0.2,0.8,0.3
		c0.1,0,0.6,0.1,1.4,0.1v1.3c-1.2,0-2.7-0.1-4.4-0.1c-2,0-3.6,0-4.7,0.1v-1.3c0.9,0,1.5-0.1,1.8-0.2c0.2-0.1,0.3-0.2,0.3-0.3
		c0.1-0.2,0.2-0.6,0.2-1.2l0.1-1.5c0-0.3,0-0.8,0-1.5v-2.2c0-1,0-2.2-0.1-3.6c0-0.7-0.1-1.1-0.1-1.2c-0.1-0.1-0.2-0.2-0.3-0.2
		c-0.2-0.1-0.8-0.1-1.9-0.2v-1.3c2-0.3,3.3-0.6,4-0.8c0.6-0.2,1.3-0.4,2.1-0.8l0.4,0.2v2.7l3-2.4c0.4-0.1,0.7-0.2,0.9-0.3
		c0.2,0,0.6-0.1,1-0.1c1.2,0,2.1,0.1,2.7,0.4c0.6,0.3,1.1,0.6,1.5,1.1c0.4,0.5,0.7,1,0.9,1.5c0.2,0.5,0.3,1.3,0.3,2.5
		c0,1.3,0,2.1,0,2.4c0,0.1,0,0.3,0,0.5l0,1.7c0,1.9,0,3,0.1,3.5c0,0.4,0.1,0.7,0.3,0.9c0.1,0.1,0.5,0.2,1,0.2
		C488.5,320.5,488.8,320.5,489.2,320.6"/>
	<path class="st0" d="M510.4,298.7v1.5c-1.1,0-1.8,0.1-2,0.1c-0.2,0-0.4,0.1-0.4,0.2s-0.1,0.2-0.2,0.3c-0.1,0.2-0.1,0.5-0.2,1.1
		c0,0.3,0,0.8,0,1.6c0,2.7-0.1,4.2-0.1,4.4v6.7l0,3c0,1.1,0.1,1.9,0.2,2.2c0,0.2,0.1,0.3,0.2,0.4c0.1,0.1,0.3,0.1,0.5,0.2
		c0.2,0,0.9,0.1,2,0.1v1.5c-1.8-0.1-3.7-0.1-5.8-0.1c-1.8,0-3.4,0-4.8,0.1v-1.5c1.1,0,1.8-0.1,2-0.1c0.2,0,0.4-0.1,0.5-0.2
		c0.1-0.1,0.1-0.2,0.2-0.3c0-0.1,0.1-0.7,0.1-1.6c0.1-1.3,0.1-2.5,0.1-3.7v-6.9c0-2.2,0-3.6,0-4.2c-0.1-1.4-0.1-2.3-0.2-2.6
		c0-0.1-0.1-0.3-0.2-0.3c-0.1-0.1-0.2-0.1-0.4-0.2c-0.2,0-0.9-0.1-2.1-0.1v-1.5c1.4,0.1,3,0.1,4.8,0.1
		C506.7,298.8,508.6,298.7,510.4,298.7"/>
	<path class="st0" d="M531.1,320.6v1.3c-1.5-0.1-2.7-0.1-3.7-0.1c-1.1,0-2,0-2.8,0.1l-0.3-0.3c0-0.2,0.1-1.2,0.2-2.9l0.1-2.7v-1.3
		c0-1.9-0.1-3.2-0.2-3.8c-0.1-0.6-0.5-1.1-0.9-1.5c-0.5-0.4-1.1-0.6-1.9-0.6c-0.8,0-1.4,0.2-1.9,0.6c-0.5,0.4-0.8,0.7-1,1.1
		c-0.1,0.2-0.1,1.1-0.1,2.7v2.8c0,0.8,0,1.8,0.1,3c0,0.5,0.1,0.9,0.1,1c0.1,0.1,0.1,0.2,0.2,0.3c0.1,0.1,0.4,0.2,0.8,0.3
		c0.1,0,0.6,0.1,1.4,0.1v1.3c-1.2,0-2.7-0.1-4.4-0.1c-2,0-3.6,0-4.7,0.1v-1.3c0.9,0,1.5-0.1,1.8-0.2c0.2-0.1,0.3-0.2,0.3-0.3
		c0.1-0.2,0.2-0.6,0.2-1.2l0.1-1.5c0-0.3,0-0.8,0-1.5v-2.2c0-1,0-2.2-0.1-3.6c0-0.7-0.1-1.1-0.1-1.2c-0.1-0.1-0.2-0.2-0.3-0.2
		c-0.2-0.1-0.8-0.1-1.9-0.2v-1.3c2-0.3,3.3-0.6,4-0.8c0.6-0.2,1.3-0.4,2.1-0.8l0.4,0.2v2.7l3-2.4c0.4-0.1,0.7-0.2,0.9-0.3
		c0.3,0,0.6-0.1,1-0.1c1.2,0,2.1,0.1,2.7,0.4c0.6,0.3,1.1,0.6,1.5,1.1c0.4,0.5,0.7,1,0.9,1.5c0.2,0.5,0.3,1.3,0.3,2.5
		c0,1.3,0,2.1,0,2.4c0,0.1,0,0.3,0,0.5l0,1.7c0,1.9,0,3,0.1,3.5c0,0.4,0.1,0.7,0.3,0.9c0.1,0.1,0.5,0.2,1,0.2
		C530.3,320.5,530.6,320.5,531.1,320.6"/>
	<path class="st0" d="M533,316.6h1.3c0.1,1.2,0.1,2,0.2,2.3c0.5,0.6,1,1.1,1.6,1.4c0.6,0.3,1.3,0.4,2.1,0.4c1,0,1.8-0.3,2.4-0.7
		c0.6-0.5,0.8-1.1,0.8-1.8c0-0.5-0.1-0.8-0.3-1.2c-0.2-0.3-0.5-0.6-1.1-0.8c-0.4-0.2-1.3-0.4-2.5-0.6c-1.2-0.3-2.1-0.6-2.8-0.9
		c-0.6-0.3-1.1-0.8-1.5-1.4c-0.4-0.6-0.5-1.4-0.5-2.2c0-1.5,0.6-2.8,1.7-3.8c1.1-1,2.8-1.5,5-1.5c0.9,0,1.7,0.1,2.5,0.2
		c0.8,0.2,1.4,0.4,2,0.7l0,0.2c-0.1,0.4-0.1,0.8-0.1,1.2c0,0.4-0.1,1.3-0.1,2.8l-1.3,0c0-0.1,0-0.3,0-0.6c0-0.5-0.1-1-0.2-1.4
		c-0.3-0.4-0.8-0.8-1.3-1c-0.5-0.2-1.1-0.3-1.8-0.3c-0.9,0-1.7,0.2-2.2,0.6c-0.5,0.4-0.8,0.9-0.8,1.5c0,0.6,0.1,1,0.3,1.3
		c0.2,0.3,0.6,0.5,1,0.6c0.5,0.1,1.3,0.3,2.5,0.6c1.2,0.2,2,0.4,2.5,0.6c0.6,0.2,1.1,0.5,1.5,0.9c0.4,0.4,0.6,0.8,0.8,1.3
		c0.2,0.5,0.3,1.1,0.3,1.7c0,1.6-0.6,3-1.9,4.2c-1.3,1.1-3.1,1.7-5.4,1.7c-0.8,0-1.5-0.1-2.3-0.2c-0.7-0.1-1.6-0.4-2.7-0.8l-0.2-0.2
		c0.1-0.9,0.1-1.5,0.2-1.8L533,316.6z"/>
	<path class="st0" d="M546.6,309.2v-0.7l1.5-0.9c0.2-0.2,0.5-0.3,0.7-0.5v-2.2c0-0.8,0-1.8-0.1-3c1.1-0.4,1.8-0.6,2.1-0.7
		c0.1,0,0.8-0.3,2.1-1l0.4,0.3l-0.2,1.7l-0.1,1.9l-0.1,2.9h0.5c1.5,0,2.6-0.1,3.3-0.2l-0.3,2.2c-0.1,0-0.3,0-0.4,0l-1.6,0h-1.6v5.5
		c0,1.7,0,2.7,0,3c0,0.5,0.2,0.9,0.6,1.2c0.3,0.3,0.8,0.4,1.4,0.4c0.4,0,0.7,0,0.9,0c0.2,0,0.5-0.1,0.9-0.2l0.3,0.7l-0.6,0.6
		c-0.5,0.5-0.9,0.9-1.3,1.3c-0.4,0.2-0.8,0.3-1.2,0.4c-0.3,0.1-0.7,0.1-1,0.1c-1.3,0-2.3-0.3-3-1c-0.7-0.7-1.1-1.5-1.1-2.5l0.1-5.5
		v-4.1h-0.5C547.8,309.2,547.2,309.2,546.6,309.2"/>
	<path class="st0" d="M557.8,321.8v-1.2c1.2-0.1,1.9-0.2,2.1-0.3c0.2-0.1,0.3-0.3,0.3-0.6c0.1-0.6,0.2-2.2,0.2-4.7
		c0-3.5,0-5.4-0.1-5.9c0-0.2-0.1-0.4-0.2-0.4c-0.2-0.1-1-0.2-2.3-0.2v-1.3c1.7-0.2,2.9-0.4,3.8-0.6c0.9-0.2,1.8-0.5,2.8-0.9l0.4,0.2
		c-0.1,1.7-0.2,3.3-0.2,4.9v5.6c0,1.9,0,3.1,0.1,3.4c0,0.2,0.1,0.3,0.3,0.4c0.3,0.1,1,0.2,2.2,0.3v1.3c-1.6,0-3.3-0.1-5.1-0.1
		C560.4,321.8,559,321.8,557.8,321.8 M562.4,297.8c0.7,0,1.3,0.2,1.8,0.7c0.5,0.5,0.7,1.1,0.7,1.8c0,0.7-0.3,1.3-0.7,1.8
		c-0.5,0.5-1.1,0.7-1.8,0.7c-0.7,0-1.3-0.2-1.8-0.7c-0.5-0.5-0.8-1.1-0.8-1.8c0-0.7,0.2-1.3,0.7-1.8
		C561.1,298.1,561.7,297.8,562.4,297.8"/>
	<path class="st0" d="M568.3,309.2v-0.7l1.5-0.9c0.2-0.2,0.5-0.3,0.7-0.5v-2.2c0-0.8,0-1.8-0.1-3c1.1-0.4,1.8-0.6,2.1-0.7
		c0.1,0,0.8-0.3,2.1-1l0.4,0.3l-0.2,1.7l-0.1,1.9l-0.2,2.9h0.5c1.5,0,2.6-0.1,3.3-0.2l-0.3,2.2c-0.1,0-0.3,0-0.4,0l-1.6,0h-1.6v5.5
		c0,1.7,0,2.7,0.1,3c0,0.5,0.2,0.9,0.6,1.2c0.3,0.3,0.8,0.4,1.4,0.4c0.4,0,0.7,0,0.9,0c0.2,0,0.5-0.1,0.9-0.2l0.3,0.7l-0.6,0.6
		c-0.5,0.5-0.9,0.9-1.3,1.3c-0.4,0.2-0.8,0.3-1.1,0.4c-0.3,0.1-0.7,0.1-1,0.1c-1.3,0-2.3-0.3-3-1c-0.7-0.7-1.1-1.5-1.1-2.5l0.1-5.5
		v-4.1H570C569.4,309.2,568.8,309.2,568.3,309.2"/>
	<path class="st0" d="M579.2,308.6v-1.3c0.9-0.1,1.9-0.2,2.9-0.4c1-0.2,2.2-0.6,3.7-1.1l0.2,0.2c-0.2,2.2-0.2,4.2-0.2,6.1v1.9
		c0,1.6,0,2.6,0.1,3.2c0.1,0.7,0.4,1.2,0.8,1.6c0.4,0.4,1,0.5,1.7,0.5c0.8,0,1.5-0.2,2-0.6c0.5-0.4,0.9-0.8,1.1-1.3
		c0.1-0.3,0.2-0.9,0.2-1.8v-2.8l0-2.4c0-0.8,0-1.2-0.1-1.4c-0.1-0.1-0.2-0.2-0.3-0.2c-0.2-0.1-0.8-0.1-2-0.2v-1.3
		c1.7-0.2,2.9-0.4,3.5-0.5c0.6-0.1,1.7-0.4,3.1-0.9l0.3,0.2l-0.2,3c-0.1,2.2-0.1,3.4-0.1,3.6v3.4c0,2,0.1,3.3,0.2,3.7
		c0,0.2,0.1,0.3,0.3,0.4c0.2,0.1,0.9,0.2,2,0.2v1.3l-3.4-0.1l-3.1,0.1l-0.1-0.1l0.1-1.3c0-0.2,0-0.6,0-1.3c-0.4,0.3-0.8,0.7-1.1,0.9
		l-1.9,1.8c-0.8,0.3-1.5,0.4-2.3,0.4c-1.5,0-2.7-0.4-3.5-1.2c-0.9-0.8-1.3-1.9-1.3-3.3c0-0.2,0-0.8,0-1.8c0-0.6,0-1.3,0-2.2l0-3.5
		c0-0.6,0-1-0.1-1.2c-0.1-0.2-0.2-0.3-0.4-0.3C580.9,308.7,580.3,308.6,579.2,308.6"/>
	<path class="st0" d="M599.4,309.2v-0.7l1.5-0.9c0.2-0.2,0.5-0.3,0.7-0.5v-2.2c0-0.8,0-1.8-0.1-3c1.1-0.4,1.8-0.6,2.1-0.7
		c0.1,0,0.8-0.3,2.1-1l0.4,0.3l-0.2,1.7l-0.1,1.9l-0.1,2.9h0.5c1.5,0,2.6-0.1,3.3-0.2l-0.3,2.2c-0.1,0-0.3,0-0.4,0l-1.6,0h-1.6v5.5
		c0,1.7,0,2.7,0,3c0,0.5,0.2,0.9,0.6,1.2c0.3,0.3,0.8,0.4,1.4,0.4c0.4,0,0.7,0,0.9,0c0.2,0,0.5-0.1,0.9-0.2l0.3,0.7l-0.6,0.6
		c-0.5,0.5-0.9,0.9-1.3,1.3c-0.4,0.2-0.8,0.3-1.2,0.4c-0.3,0.1-0.7,0.1-1,0.1c-1.3,0-2.3-0.3-3-1c-0.7-0.7-1.1-1.5-1.1-2.5l0.1-5.5
		v-4.1h-0.4C600.5,309.2,599.9,309.2,599.4,309.2"/>
	<path class="st0" d="M624.8,319.3l-0.7,1.6c-0.9,0.6-1.8,1-2.8,1.2c-0.7,0.2-1.5,0.3-2.5,0.3c-1.1,0-2.1-0.1-2.9-0.4
		c-0.8-0.3-1.5-0.6-2.1-1c-0.6-0.4-1.1-1-1.6-1.6c-0.4-0.6-0.8-1.4-1-2.2c-0.2-0.8-0.3-1.8-0.3-2.8c0-1.4,0.2-2.7,0.6-3.9
		c0.3-0.8,0.6-1.4,0.9-1.7c0.2-0.2,0.8-0.6,1.7-1.2c0.9-0.6,1.6-1,2-1.2c0.8-0.3,1.7-0.5,2.7-0.5c1.5,0,2.7,0.3,3.6,0.9
		c1,0.6,1.6,1.4,2,2.4s0.6,2.1,0.6,3.5c0,0.3,0,0.6,0,0.9c-0.3,0.1-0.7,0.2-1.3,0.3c-0.8,0.1-1.3,0.2-1.5,0.2
		c-0.8,0.1-1.9,0.1-3.3,0.1c-1.4,0-2.1,0-2.3,0c-0.1,0-0.3,0-0.5,0h-1.1c0.1,1.7,0.6,3.1,1.6,4.1c1,1,2.2,1.5,3.7,1.5
		c0.6,0,1.2-0.1,1.7-0.2c0.5-0.1,1.2-0.4,2.1-0.9L624.8,319.3z M620.8,312.4c0-1.8-0.2-3-0.7-3.7c-0.5-0.7-1.2-1-2.1-1
		c-0.9,0-1.6,0.4-2.1,1.1c-0.6,0.7-0.8,2-0.8,3.6c0.6,0.1,1.7,0.1,3.3,0.1C619.4,312.6,620.2,312.5,620.8,312.4"/>
	<polygon class="st1" points="83,311.8 101.8,304 101.8,319.5 	"/>
	<polygon class="st1" points="104.8,305.6 104.8,318.3 117.3,313.2 117.3,310 124.1,307.2 124.1,298 	"/>
	<polygon class="st0" points="101.8,277.8 121.1,270.2 197.7,300.7 178.6,308.9 	"/>
	<polygon class="st0" points="101.8,288.5 44.3,311.6 101.8,335.1 159,311.8 136.1,302.4 117.3,310 120.9,311.8 101.8,319.5 
		83,311.8 101.8,304 104.8,305.6 124.1,298 	"/>
	<polygon class="st0" points="25.2,335.1 44.3,327.2 101.8,350.3 159,327.2 178.4,335.1 101.8,365.9 	"/>
	<polygon class="st1" points="178.6,308.9 178.4,335.1 101.8,365.9 101.8,381.3 197.7,342.9 197.7,300.7 	"/>
	<path class="st0" d="M208.6,344.5v-0.6c0.6,0,1-0.1,1.1-0.1c0.1-0.1,0.2-0.2,0.2-0.3c0.1-0.2,0.1-0.9,0.1-2v-4.5c0-1.2,0-1.9,0-2.1
		h-1.1c-0.5,0-1,0-1.4,0.1c-0.2,0-0.3,0-0.3,0.1c0,0-0.1,0.1-0.1,0.3c-0.1,0.4-0.1,0.8-0.1,1.2h-0.6c0-1,0-1.6,0-1.8
		c0-0.2,0-0.5-0.1-0.7l0.1-0.1c0.2,0,0.5,0,0.8,0.1c0.4,0,1.3,0,2.5,0h3.1c1.3,0,2.1,0,2.6,0c0.2,0,0.5,0,0.7-0.1l0.1,0.1
		c0,0.3-0.1,0.6-0.1,0.8c0,0,0,0.6,0,1.7h-0.6c0-0.4,0-0.8-0.1-1.1c0-0.2-0.1-0.3-0.1-0.3c0,0-0.1,0-0.2-0.1c-0.4,0-0.9-0.1-1.5-0.1
		h-1.1c0,0.2,0,0.9,0,2.1v4.5c0,1.1,0,1.8,0.1,2c0,0.1,0.1,0.2,0.2,0.3c0.1,0.1,0.5,0.1,1.1,0.1v0.6c-1,0-1.8-0.1-2.5-0.1
		C210.4,344.4,209.5,344.5,208.6,344.5"/>
	<path class="st0" d="M219.3,343.9v0.6c-0.6,0-1.2,0-1.9,0c-0.8,0-1.6,0-2.4,0v-0.6c0.4,0,0.7,0,0.8-0.1c0.1,0,0.1-0.1,0.2-0.1
		c0.1-0.1,0.1-0.3,0.1-0.5l0-0.7c0-0.1,0-0.4,0-0.7v-1c0-0.5,0-1,0-1.6c0-0.3,0-0.5-0.1-0.6c0,0-0.1-0.1-0.1-0.1
		c-0.1,0-0.4-0.1-0.9-0.1v-0.6c0.9-0.2,1.5-0.3,1.8-0.3s0.6-0.2,1-0.4l0.2,0.1l0,1.5c0.3-0.3,0.6-0.6,0.8-0.8
		c0.3-0.3,0.5-0.5,0.6-0.6c0.2-0.1,0.4-0.2,0.7-0.2c0.2,0,0.4,0,0.5,0.1l0,1.1c0,0.6,0,0.9,0,1l-0.3,0.1c-0.1-0.2-0.2-0.3-0.4-0.3
		c-0.2-0.1-0.4-0.2-0.6-0.2c-0.3,0-0.6,0.1-0.8,0.3c-0.2,0.2-0.3,0.4-0.4,0.6c0,0.1,0,0.5,0,1.3v0.8l0,1c0,0.4,0,0.6,0,0.7
		c0,0.1,0.1,0.2,0.2,0.2c0.1,0.1,0.3,0.1,0.5,0.1L219.3,343.9z"/>
	<path class="st0" d="M228,343.9v0.6c-0.6,0-1.1,0-1.5,0c-0.4,0-0.8,0-1.2,0l-0.1-0.1l0.1-1c-0.2,0.1-0.7,0.5-1.6,1.2
		c-0.2,0-0.4,0.1-0.7,0.1c-0.5,0-1-0.2-1.3-0.5c-0.3-0.3-0.5-0.8-0.5-1.4c0-0.4,0.1-0.7,0.2-1c0.1-0.3,0.3-0.5,0.5-0.6
		c0.2-0.1,0.4-0.2,0.7-0.4c0.8-0.3,1.7-0.5,2.6-0.7c0-0.6-0.1-1.1-0.4-1.4c-0.3-0.3-0.7-0.5-1.2-0.5c-0.2,0-0.4,0-0.6,0.1
		c-0.1,0-0.2,0.1-0.3,0.2l-0.3,0.8l-0.5-0.1l0-1c0.4-0.3,0.7-0.5,1.1-0.7c0.3-0.2,0.6-0.3,0.7-0.3c0.2-0.1,0.5-0.1,0.8-0.1
		c0.6,0,1,0.1,1.4,0.2c0.4,0.2,0.6,0.3,0.8,0.6c0.2,0.2,0.3,0.5,0.3,0.7c0.1,0.2,0.1,0.6,0.1,0.9c0,0.2,0,0.6,0,1.3
		c0,0.5,0,0.8,0,1.1c0,0.9,0,1.4,0.1,1.6c0,0.1,0.1,0.2,0.1,0.2C227.3,343.9,227.5,343.9,228,343.9 M225.2,340.8
		c-0.4,0.1-0.8,0.2-1.2,0.3c-0.4,0.1-0.6,0.3-0.7,0.5c-0.1,0.2-0.2,0.4-0.2,0.7c0,0.3,0.1,0.6,0.2,0.8c0.2,0.2,0.4,0.3,0.6,0.3
		c0.2,0,0.5-0.1,0.7-0.2c0.2-0.1,0.4-0.3,0.5-0.5V340.8z"/>
	<path class="st0" d="M237.5,343.9v0.6c-0.7,0-1.3-0.1-1.7-0.1c-0.5,0-0.9,0-1.3,0.1l-0.1-0.1c0-0.1,0-0.5,0.1-1.3l0-1.2v-0.6
		c0-0.9,0-1.5-0.1-1.7c-0.1-0.3-0.2-0.5-0.4-0.7c-0.2-0.2-0.5-0.3-0.9-0.3c-0.4,0-0.6,0.1-0.9,0.3s-0.4,0.3-0.4,0.5
		c0,0.1,0,0.5,0,1.2v1.3c0,0.4,0,0.8,0,1.4c0,0.2,0,0.4,0.1,0.5c0,0.1,0.1,0.1,0.1,0.1c0.1,0,0.2,0.1,0.4,0.1c0.1,0,0.3,0,0.6,0.1
		v0.6c-0.6,0-1.2,0-2,0c-0.9,0-1.6,0-2.2,0v-0.6c0.4,0,0.7,0,0.8-0.1c0.1,0,0.1-0.1,0.2-0.1c0-0.1,0.1-0.3,0.1-0.5l0-0.7
		c0-0.1,0-0.4,0-0.7v-1c0-0.5,0-1,0-1.6c0-0.3,0-0.5-0.1-0.6c0,0-0.1-0.1-0.1-0.1c-0.1,0-0.4-0.1-0.9-0.1v-0.6
		c0.9-0.2,1.5-0.3,1.8-0.3s0.6-0.2,1-0.4l0.2,0.1v1.2l1.4-1.1c0.2-0.1,0.3-0.1,0.4-0.1c0.1,0,0.3,0,0.5,0c0.5,0,0.9,0.1,1.2,0.2
		c0.3,0.1,0.5,0.3,0.7,0.5c0.2,0.2,0.3,0.5,0.4,0.7c0.1,0.2,0.1,0.6,0.1,1.1c0,0.6,0,0.9,0,1.1c0,0.1,0,0.1,0,0.2l0,0.8
		c0,0.9,0,1.4,0,1.6c0,0.2,0.1,0.3,0.1,0.4c0.1,0.1,0.2,0.1,0.5,0.1C237.1,343.9,237.3,343.9,237.5,343.9"/>
	<path class="st0" d="M238.6,342.1h0.6c0,0.6,0,0.9,0.1,1.1c0.2,0.3,0.5,0.5,0.8,0.6c0.3,0.1,0.6,0.2,0.9,0.2c0.5,0,0.8-0.1,1.1-0.3
		c0.3-0.2,0.4-0.5,0.4-0.8c0-0.2,0-0.4-0.1-0.5c-0.1-0.1-0.3-0.3-0.5-0.4c-0.2-0.1-0.6-0.2-1.1-0.3c-0.6-0.1-1-0.3-1.3-0.4
		c-0.3-0.1-0.5-0.4-0.7-0.7c-0.2-0.3-0.2-0.6-0.2-1c0-0.7,0.3-1.3,0.8-1.7c0.5-0.5,1.3-0.7,2.3-0.7c0.4,0,0.8,0,1.1,0.1
		c0.3,0.1,0.7,0.2,0.9,0.3l0,0.1c0,0.2-0.1,0.4-0.1,0.5c0,0.2,0,0.6-0.1,1.3l-0.6,0c0-0.1,0-0.1,0-0.3c0-0.2,0-0.4-0.1-0.7
		c-0.2-0.2-0.4-0.4-0.6-0.5c-0.2-0.1-0.5-0.2-0.8-0.2c-0.4,0-0.8,0.1-1,0.3c-0.2,0.2-0.4,0.4-0.4,0.7c0,0.3,0.1,0.5,0.2,0.6
		c0.1,0.1,0.3,0.2,0.5,0.3c0.2,0.1,0.6,0.1,1.2,0.3c0.6,0.1,0.9,0.2,1.1,0.3c0.3,0.1,0.5,0.2,0.7,0.4c0.2,0.2,0.3,0.4,0.4,0.6
		c0.1,0.2,0.1,0.5,0.1,0.8c0,0.8-0.3,1.4-0.9,1.9c-0.6,0.5-1.4,0.8-2.5,0.8c-0.4,0-0.7,0-1-0.1c-0.3-0.1-0.7-0.2-1.2-0.3l-0.1-0.1
		c0-0.4,0.1-0.7,0.1-0.8L238.6,342.1z"/>
	<path class="st0" d="M245.2,344.5v-0.6c0.6,0,1-0.1,1.1-0.2c0.1-0.1,0.1-0.2,0.2-0.3c0-0.3,0.1-1.1,0.1-2.5v-2.3l-0.2,0l-1,0v-0.4
		c0.7-0.3,1-0.5,1-0.6c0.1,0,0.1-0.1,0.1-0.2c0-0.2,0-0.5,0-0.9c0-0.4,0.1-0.6,0.1-0.7c0-0.1,0.1-0.3,0.2-0.4
		c0.2-0.2,0.5-0.6,1.1-1.1l0.9-0.8c0.1-0.1,0.3-0.2,0.5-0.3c0.2-0.1,0.4-0.1,0.7-0.1c0.2,0,0.5,0,0.8,0.1c-0.1,0.5-0.1,1.1-0.1,1.5
		l-0.3,0.1c-0.2-0.1-0.3-0.2-0.4-0.3c-0.1-0.1-0.3-0.1-0.5-0.1c-0.3,0-0.5,0.1-0.7,0.2c-0.1,0.1-0.2,0.2-0.2,0.3
		c-0.1,0.2-0.1,0.7-0.1,1.5v1.1l0.9,0c0.4,0,0.8,0,1.1-0.1l0.1,0.1c0,0.1,0,0.2-0.1,0.3l-0.1,0.7l-0.8,0c-0.2,0-0.3,0-0.4,0
		c-0.1,0-0.4,0-0.8,0v2.4c0,0.5,0,1.1,0,1.5c0,0.5,0,0.8,0.1,0.9c0,0.1,0.1,0.1,0.1,0.2c0.1,0,0.1,0.1,0.3,0.1c0,0,0.4,0,1,0.1v0.6
		l-2.6,0C247,344.5,246.3,344.5,245.2,344.5"/>
	<path class="st0" d="M251.4,340.9c0-0.9,0.1-1.6,0.4-2.1c0.3-0.6,0.7-1,1.3-1.3c0.6-0.3,1.3-0.4,2-0.4c1.2,0,2.1,0.3,2.7,0.9
		c0.6,0.6,0.9,1.5,0.9,2.7c0,0.7-0.1,1.3-0.3,1.8c-0.2,0.5-0.4,0.9-0.7,1.2c-0.3,0.3-0.6,0.5-0.9,0.7c-0.6,0.3-1.2,0.4-1.9,0.4
		c-1.1,0-2-0.3-2.6-1C251.7,343.1,251.4,342.2,251.4,340.9 M253.5,340.6c0,1.3,0.2,2.3,0.6,2.9c0.3,0.4,0.6,0.6,1.1,0.6
		c0.4,0,0.7-0.1,1-0.4c0.3-0.4,0.5-1.1,0.5-2.2c0-0.8-0.1-1.4-0.2-2c-0.1-0.6-0.3-0.9-0.6-1.2c-0.3-0.2-0.6-0.3-0.9-0.3
		c-0.3,0-0.6,0.1-0.8,0.2c-0.2,0.2-0.4,0.4-0.5,0.8C253.6,339.3,253.5,339.8,253.5,340.6"/>
	<path class="st0" d="M264.2,343.9v0.6c-0.6,0-1.2,0-1.9,0c-0.8,0-1.6,0-2.4,0v-0.6c0.4,0,0.7,0,0.8-0.1c0.1,0,0.1-0.1,0.2-0.1
		c0.1-0.1,0.1-0.3,0.1-0.5l0-0.7c0-0.1,0-0.4,0-0.7v-1c0-0.5,0-1,0-1.6c0-0.3,0-0.5-0.1-0.6c0,0-0.1-0.1-0.1-0.1
		c-0.1,0-0.4-0.1-0.9-0.1v-0.6c0.9-0.2,1.5-0.3,1.8-0.3s0.6-0.2,1-0.4l0.2,0.1l0,1.5c0.3-0.3,0.6-0.6,0.8-0.8
		c0.3-0.3,0.5-0.5,0.6-0.6c0.2-0.1,0.4-0.2,0.7-0.2c0.2,0,0.4,0,0.5,0.1l0,1.1c0,0.6,0,0.9,0,1l-0.3,0.1c-0.1-0.2-0.3-0.3-0.4-0.3
		c-0.2-0.1-0.4-0.2-0.6-0.2c-0.3,0-0.6,0.1-0.8,0.3c-0.2,0.2-0.3,0.4-0.4,0.6c0,0.1,0,0.5,0,1.3v0.8l0,1c0,0.4,0,0.6,0,0.7
		c0,0.1,0.1,0.2,0.2,0.2c0.1,0.1,0.3,0.1,0.5,0.1L264.2,343.9z"/>
	<path class="st0" d="M265.9,344.5v-0.6c0.4,0,0.7,0,0.8-0.1c0.1,0,0.1-0.1,0.2-0.1c0.1-0.1,0.1-0.3,0.1-0.5l0-0.7
		c0-0.1,0-0.4,0-0.7v-1c0-0.5,0-1,0-1.6c0-0.3,0-0.5-0.1-0.5c0,0-0.1-0.1-0.1-0.1c-0.1,0-0.4-0.1-0.9-0.1v-0.6
		c0.9-0.2,1.5-0.3,1.8-0.3c0.3-0.1,0.6-0.2,1-0.4l0.2,0.1v1.2l1.4-1.1c0.2-0.1,0.3-0.1,0.4-0.1c0.1,0,0.3,0,0.5,0
		c0.6,0,1.1,0.1,1.4,0.3s0.6,0.5,0.8,1l1.4-1.1c0.2-0.1,0.3-0.1,0.4-0.1c0.1,0,0.3,0,0.5,0c0.5,0,0.9,0.1,1.2,0.2
		c0.3,0.1,0.5,0.3,0.7,0.5c0.2,0.2,0.3,0.4,0.4,0.7c0.1,0.2,0.1,0.6,0.1,1.1c0,0.6,0,0.9,0,1.1c0,0.1,0,0.1,0,0.2v0.8
		c0,0.8,0,1.3,0,1.6c0,0.2,0.1,0.4,0.1,0.4c0.1,0.1,0.2,0.1,0.5,0.1c0.1,0,0.2,0,0.4,0v0.6c-0.7,0-1.3-0.1-1.7-0.1
		c-0.5,0-0.9,0-1.3,0.1l-0.1-0.1l0.1-1.4c0-0.6,0-1,0-1.4V341c0-0.9,0-1.5-0.1-1.7c-0.1-0.2-0.2-0.4-0.4-0.6
		c-0.2-0.1-0.4-0.2-0.7-0.2c-0.3,0-0.6,0.1-0.8,0.2c-0.2,0.2-0.4,0.3-0.4,0.4c-0.1,0.1-0.1,0.4-0.1,0.8v1.8l0,0.8l0,0.6
		c0,0.2,0,0.3,0.1,0.4c0,0.1,0.1,0.1,0.1,0.2c0,0,0.1,0,0.3,0.1c0.3,0,0.5,0.1,0.6,0.1v0.6c-0.5,0-1.1,0-1.9,0c-0.9,0-1.6,0-2.1,0
		v-0.6c0.1,0,0.2,0,0.4,0c0.2,0,0.4,0,0.4-0.1c0.1,0,0.1-0.1,0.1-0.2c0-0.1,0.1-0.4,0.1-0.8l0-1.3v-1.1c0-0.5,0-0.9-0.1-1.1
		c-0.1-0.2-0.2-0.4-0.4-0.5c-0.2-0.1-0.4-0.2-0.8-0.2c-0.3,0-0.6,0.1-0.9,0.3c-0.2,0.2-0.4,0.3-0.4,0.5c0,0.1,0,0.5,0,1.2v1.3
		c0,0.7,0,1.2,0,1.6c0,0.2,0,0.3,0.1,0.4c0,0.1,0.1,0.1,0.2,0.1c0.1,0,0.3,0,0.7,0.1v0.6c-0.5,0-1.2,0-2,0
		C267.1,344.5,266.4,344.5,265.9,344.5"/>
	<path class="st0" d="M279.8,344.5v-0.6c0.6,0,0.9-0.1,1-0.1c0.1,0,0.1-0.1,0.2-0.3c0-0.3,0.1-1,0.1-2.1c0-1.6,0-2.5-0.1-2.7
		c0-0.1-0.1-0.2-0.1-0.2c-0.1-0.1-0.4-0.1-1-0.1v-0.6c0.8-0.1,1.3-0.2,1.7-0.3s0.8-0.2,1.3-0.4l0.2,0.1c-0.1,0.8-0.1,1.5-0.1,2.2
		v2.6c0,0.9,0,1.4,0.1,1.6c0,0.1,0.1,0.2,0.1,0.2c0.1,0.1,0.5,0.1,1,0.1v0.6c-0.7,0-1.5,0-2.3,0C281,344.5,280.3,344.5,279.8,344.5
		 M281.8,333.5c0.3,0,0.6,0.1,0.8,0.3c0.2,0.2,0.3,0.5,0.3,0.8c0,0.3-0.1,0.6-0.3,0.8c-0.2,0.2-0.5,0.3-0.8,0.3
		c-0.3,0-0.6-0.1-0.8-0.3c-0.2-0.2-0.3-0.5-0.3-0.8c0-0.3,0.1-0.6,0.3-0.8C281.3,333.6,281.5,333.5,281.8,333.5"/>
	<path class="st0" d="M293.6,343.9v0.6c-0.7,0-1.3-0.1-1.7-0.1c-0.5,0-0.9,0-1.3,0.1l-0.1-0.1c0-0.1,0-0.5,0.1-1.3l0-1.2v-0.6
		c0-0.9,0-1.5-0.1-1.7c-0.1-0.3-0.2-0.5-0.4-0.7c-0.2-0.2-0.5-0.3-0.9-0.3c-0.4,0-0.6,0.1-0.9,0.3c-0.2,0.2-0.4,0.3-0.4,0.5
		c0,0.1-0.1,0.5,0,1.2v1.3c0,0.4,0,0.8,0,1.4c0,0.2,0,0.4,0.1,0.5c0,0.1,0.1,0.1,0.1,0.1c0.1,0,0.2,0.1,0.4,0.1c0.1,0,0.3,0,0.6,0.1
		v0.6c-0.6,0-1.2,0-2,0c-0.9,0-1.6,0-2.2,0v-0.6c0.4,0,0.7,0,0.8-0.1c0.1,0,0.1-0.1,0.2-0.1c0-0.1,0.1-0.3,0.1-0.5l0-0.7
		c0-0.1,0-0.4,0-0.7v-1c0-0.5,0-1,0-1.6c0-0.3,0-0.5-0.1-0.6c0,0-0.1-0.1-0.1-0.1c-0.1,0-0.4-0.1-0.9-0.1v-0.6
		c0.9-0.2,1.5-0.3,1.8-0.3s0.6-0.2,1-0.4l0.2,0.1v1.2l1.4-1.1c0.2-0.1,0.3-0.1,0.4-0.1c0.1,0,0.3,0,0.5,0c0.5,0,0.9,0.1,1.2,0.2
		c0.3,0.1,0.5,0.3,0.7,0.5c0.2,0.2,0.3,0.5,0.4,0.7c0.1,0.2,0.1,0.6,0.1,1.1c0,0.6,0,0.9,0,1.1c0,0.1,0,0.1,0,0.2l0,0.8
		c0,0.9,0,1.4,0,1.6c0,0.2,0.1,0.3,0.1,0.4c0.1,0.1,0.2,0.1,0.5,0.1C293.3,343.9,293.4,343.9,293.6,343.9"/>
	<path class="st0" d="M295.4,342.7l1.1-0.8c-0.4-0.1-0.7-0.3-0.9-0.5c-0.2-0.2-0.4-0.4-0.5-0.7c-0.1-0.3-0.2-0.6-0.2-1
		c0-0.5,0.1-0.9,0.4-1.3c0.2-0.4,0.6-0.8,1.2-1c0.5-0.2,1.1-0.4,1.9-0.4c0.5,0,0.9,0.1,1.3,0.2c0.4,0.1,0.7,0.3,1,0.5
		c0.3,0,0.5,0,0.6,0c0.2,0,0.6,0,1.2,0l-0.1,0.9h-1.2c0.1,0.3,0.1,0.5,0.1,0.7c0,0.5-0.1,1-0.4,1.4s-0.7,0.7-1.2,1
		c-0.5,0.2-1.1,0.3-1.7,0.3c-0.2,0-0.4,0-0.7,0c-0.2,0.1-0.3,0.2-0.4,0.3c-0.1,0.1-0.1,0.2-0.1,0.3c0,0.1,0,0.2,0.1,0.3
		c0.1,0.1,0.2,0.1,0.3,0.2c0.2,0,0.6,0.1,1.3,0.1l1.9,0c0.5,0,1,0.1,1.3,0.2c0.3,0.1,0.5,0.3,0.7,0.6c0.1,0.3,0.2,0.6,0.2,1
		c0,0.6-0.2,1.2-0.4,1.7c-0.3,0.5-0.7,0.9-1.3,1.3c-0.8,0.4-1.7,0.6-2.7,0.6c-0.8,0-1.5-0.1-2-0.3c-0.5-0.2-0.9-0.5-1.1-0.8
		c-0.2-0.3-0.3-0.7-0.3-1c0-0.2,0-0.4,0.1-0.6c0.1-0.2,0.1-0.3,0.2-0.4c0.1-0.1,0.3-0.2,0.5-0.3c0.5-0.3,0.8-0.4,0.8-0.4
		c-0.3,0-0.5-0.1-0.7-0.3c-0.2-0.2-0.3-0.4-0.3-0.6c0-0.1,0-0.3,0.1-0.4C295.3,343,295.3,342.9,295.4,342.7 M297,344.7
		c-0.4,0.3-0.7,0.5-0.8,0.7c-0.1,0.2-0.2,0.5-0.2,0.7c0,0.5,0.2,0.8,0.6,1.2s0.9,0.5,1.7,0.5c0.8,0,1.4-0.2,1.8-0.6
		c0.4-0.4,0.6-0.8,0.6-1.4c0-0.3,0-0.5-0.1-0.6c-0.1-0.1-0.2-0.3-0.4-0.3c-0.2-0.1-0.4-0.1-0.6-0.1c-0.3,0-0.9,0-1.9,0
		C297.5,344.7,297.3,344.7,297,344.7 M296.7,339.5c0,0.7,0.1,1.2,0.4,1.5c0.2,0.3,0.6,0.4,0.9,0.4c0.4,0,0.8-0.2,1-0.5
		c0.2-0.3,0.2-0.6,0.2-1.1c0-0.7-0.1-1.2-0.3-1.5c-0.2-0.3-0.5-0.4-0.9-0.4c-0.4,0-0.7,0.1-0.9,0.4
		C296.8,338.5,296.7,338.9,296.7,339.5"/>
	<path class="st0" d="M306.8,338.7v-0.3l0.7-0.4c0.1-0.1,0.2-0.1,0.3-0.2v-1c0-0.4,0-0.8-0.1-1.4c0.5-0.2,0.8-0.3,1-0.3
		c0,0,0.3-0.2,1-0.4l0.2,0.2l-0.1,0.8l-0.1,0.9l-0.1,1.3h0.3c0.7,0,1.2,0,1.5-0.1l-0.1,1c-0.1,0-0.1,0-0.2,0l-0.7,0h-0.7v2.5
		c0,0.8,0,1.2,0,1.4c0,0.2,0.1,0.4,0.3,0.6c0.1,0.1,0.4,0.2,0.6,0.2c0.2,0,0.3,0,0.4,0c0.1,0,0.2,0,0.4-0.1l0.1,0.3l-0.3,0.3
		c-0.2,0.2-0.4,0.4-0.6,0.6c-0.2,0.1-0.4,0.1-0.5,0.2c-0.2,0-0.3,0-0.5,0c-0.6,0-1-0.2-1.4-0.5c-0.3-0.3-0.5-0.7-0.5-1.1l0-2.5v-1.9
		h-0.2C307.3,338.7,307,338.7,306.8,338.7"/>
	<path class="st0" d="M320.7,343.9v0.6c-0.8,0-1.3,0-1.5,0c-0.2,0-0.7,0-1.5,0l-0.1-0.1l0.1-1.6c0-0.3,0-0.6,0-1v-1.5
		c0-0.7-0.1-1.2-0.3-1.4c-0.2-0.3-0.6-0.4-1-0.4c-0.3,0-0.6,0.1-0.8,0.2c-0.2,0.2-0.4,0.4-0.5,0.6c0,0.1-0.1,0.3-0.1,0.6v1
		c0,0.4,0,0.9,0,1.5c0,0.6,0,1,0.1,1.1c0,0.1,0,0.1,0.1,0.1c0,0,0.1,0.1,0.1,0.1c0.1,0,0.2,0.1,0.3,0.1l0.6,0v0.6
		c-1.4,0-2.2-0.1-2.3-0.1l-1.9,0.1v-0.6c0.4,0,0.7,0,0.8-0.1c0.1,0,0.1,0,0.2-0.1c0,0,0.1-0.1,0.1-0.2c0-0.2,0.1-0.6,0.1-1.4
		c0-0.8,0-1.5,0-2.1v-2.5c0-0.8,0-1.6-0.1-2.2c0-0.3,0-0.5-0.1-0.6c0,0,0-0.1-0.1-0.1c-0.1,0-0.2-0.1-0.3-0.1c-0.1,0-0.3,0-0.7,0
		V334c0.7-0.1,1.2-0.2,1.5-0.2c0.3-0.1,0.8-0.2,1.4-0.4l0.2,0.1l-0.1,1.8c0,0.9,0,1.8,0,2.5v0.7l1.3-1.1c0.4-0.1,0.7-0.2,1.1-0.2
		c0.4,0,0.8,0.1,1.1,0.2c0.3,0.1,0.6,0.3,0.7,0.5c0.2,0.2,0.3,0.4,0.4,0.7c0.1,0.3,0.1,0.6,0.1,1c0,0.1,0,0.5,0,1.2
		c0,0.5,0,0.9,0,1.2c0,0.9,0,1.5,0.1,1.6c0,0.1,0.1,0.2,0.2,0.2C319.9,343.9,320.2,343.9,320.7,343.9"/>
	<path class="st0" d="M328.1,343.3l-0.3,0.7c-0.4,0.3-0.8,0.4-1.3,0.6c-0.3,0.1-0.7,0.1-1.1,0.1c-0.5,0-0.9-0.1-1.3-0.2
		c-0.4-0.1-0.7-0.3-1-0.5c-0.3-0.2-0.5-0.5-0.7-0.7c-0.2-0.3-0.4-0.6-0.4-1c-0.1-0.4-0.1-0.8-0.1-1.3c0-0.7,0.1-1.3,0.3-1.8
		c0.1-0.4,0.3-0.6,0.4-0.8c0.1-0.1,0.4-0.3,0.8-0.6c0.4-0.3,0.7-0.5,0.9-0.5c0.4-0.2,0.8-0.2,1.3-0.2c0.7,0,1.2,0.1,1.7,0.4
		c0.4,0.3,0.7,0.6,0.9,1.1c0.2,0.4,0.3,1,0.3,1.6c0,0.1,0,0.3,0,0.4c-0.1,0-0.3,0.1-0.6,0.1c-0.3,0.1-0.6,0.1-0.7,0.1
		c-0.4,0-0.9,0-1.5,0.1c-0.6,0-1,0-1,0c-0.1,0-0.1,0-0.2,0h-0.5c0,0.8,0.3,1.4,0.7,1.9c0.5,0.5,1,0.7,1.7,0.7c0.3,0,0.6,0,0.8-0.1
		c0.2-0.1,0.6-0.2,1-0.4L328.1,343.3z M326.3,340.2c0-0.8-0.1-1.4-0.3-1.7c-0.2-0.3-0.6-0.5-0.9-0.5c-0.4,0-0.7,0.2-1,0.5
		c-0.3,0.3-0.4,0.9-0.4,1.7c0.3,0,0.8,0.1,1.5,0.1C325.7,340.3,326,340.2,326.3,340.2"/>
	<path class="st0" d="M334,344.5v-0.4c0.3-0.2,0.5-0.3,0.7-0.5c0-0.2,0-0.5,0.1-0.9c0-0.7,0-2.1,0-4c0-0.5,0-1.3,0-2.4
		c0-0.9,0-1.3-0.1-1.5c0-0.1-0.1-0.1-0.1-0.2c-0.1-0.1-0.5-0.1-1.1-0.2v-0.6c0.1,0,0.2,0,0.3,0l1,0c0.3,0,0.8,0,1.3,0
		c0.5,0,0.9,0,1.2,0c0.7,0,1.2,0,1.4,0c0.8,0,1.5,0.1,1.9,0.3c0.5,0.2,0.8,0.4,1,0.7c0.2,0.3,0.3,0.7,0.3,1.1c0,0.4-0.1,0.8-0.4,1.2
		c-0.2,0.4-0.5,0.7-0.9,0.9c-0.2,0.1-0.7,0.3-1.5,0.5c0.9,0.1,1.6,0.3,1.9,0.4c0.4,0.2,0.7,0.5,0.9,0.9c0.2,0.4,0.3,0.8,0.3,1.3
		c0,0.5-0.1,1-0.3,1.4s-0.5,0.8-0.9,1c-0.4,0.3-0.8,0.5-1.2,0.7c-0.5,0.2-1,0.3-1.7,0.3l-2.5,0C335.2,344.5,334.6,344.5,334,344.5
		 M336.8,338.3l0.4,0c0.3,0,0.7,0,1-0.1c0.3-0.1,0.5-0.2,0.7-0.3c0.2-0.1,0.3-0.3,0.5-0.6c0.1-0.3,0.2-0.6,0.2-1
		c0-0.4-0.1-0.7-0.2-0.9c-0.1-0.3-0.3-0.4-0.6-0.5c-0.2-0.1-0.6-0.2-1-0.2c-0.3,0-0.6,0-0.9,0.1c0,0.4,0,0.8-0.1,1.3l0,1.2V338.3z
		 M336.9,343.6c0.2,0,0.5,0.1,0.9,0.1c0.6,0,1.1-0.2,1.5-0.6c0.4-0.4,0.6-1,0.6-1.8c0-0.5-0.1-1-0.3-1.3c-0.2-0.3-0.5-0.6-0.8-0.7
		c-0.3-0.1-0.8-0.2-1.4-0.2c-0.2,0-0.4,0-0.6,0v3.5l0,0.9C336.9,343.5,336.9,343.5,336.9,343.6"/>
	<path class="st0" d="M343.5,338.4v-0.6c0.4,0,0.9-0.1,1.3-0.2c0.4-0.1,1-0.3,1.7-0.5l0.1,0.1c-0.1,1-0.1,1.9-0.1,2.8v0.8
		c0,0.7,0,1.2,0.1,1.4c0,0.3,0.2,0.6,0.4,0.7c0.2,0.2,0.4,0.2,0.8,0.2c0.4,0,0.7-0.1,0.9-0.3c0.2-0.2,0.4-0.4,0.5-0.6
		c0.1-0.1,0.1-0.4,0.1-0.8v-1.3l0-1.1c0-0.3,0-0.6-0.1-0.6c0,0-0.1-0.1-0.2-0.1c-0.1,0-0.4-0.1-0.9-0.1v-0.6
		c0.8-0.1,1.3-0.2,1.6-0.2c0.3-0.1,0.8-0.2,1.4-0.4l0.1,0.1l-0.1,1.4c0,1-0.1,1.5-0.1,1.7v1.6c0,0.9,0,1.5,0.1,1.7
		c0,0.1,0.1,0.2,0.1,0.2c0.1,0.1,0.4,0.1,0.9,0.1v0.6l-1.6,0l-1.4,0l-0.1-0.1l0-0.6c0-0.1,0-0.3,0-0.6c-0.2,0.2-0.4,0.3-0.5,0.4
		l-0.9,0.8c-0.3,0.1-0.7,0.2-1.1,0.2c-0.7,0-1.2-0.2-1.6-0.6c-0.4-0.4-0.6-0.9-0.6-1.5c0-0.1,0-0.4,0-0.8c0-0.3,0-0.6,0-1l0-1.6
		c0-0.3,0-0.5-0.1-0.5c0-0.1-0.1-0.1-0.2-0.2C344.3,338.5,344,338.4,343.5,338.4"/>
	<path class="st0" d="M353.1,344.5v-0.6c0.6,0,0.9-0.1,1-0.1c0.1,0,0.1-0.1,0.2-0.3c0-0.3,0.1-1,0.1-2.1c0-1.6,0-2.5-0.1-2.7
		c0-0.1-0.1-0.2-0.1-0.2c-0.1-0.1-0.4-0.1-1-0.1v-0.6c0.8-0.1,1.3-0.2,1.7-0.3s0.8-0.2,1.3-0.4l0.2,0.1c-0.1,0.8-0.1,1.5-0.1,2.2
		v2.6c0,0.9,0,1.4,0.1,1.6c0,0.1,0.1,0.2,0.1,0.2c0.1,0.1,0.5,0.1,1,0.1v0.6c-0.7,0-1.5,0-2.3,0
		C354.3,344.5,353.7,344.5,353.1,344.5 M355.2,333.5c0.3,0,0.6,0.1,0.8,0.3c0.2,0.2,0.3,0.5,0.3,0.8c0,0.3-0.1,0.6-0.3,0.8
		c-0.2,0.2-0.5,0.3-0.8,0.3c-0.3,0-0.6-0.1-0.8-0.3c-0.2-0.2-0.3-0.5-0.3-0.8c0-0.3,0.1-0.6,0.3-0.8
		C354.6,333.6,354.9,333.5,355.2,333.5"/>
	<path class="st0" d="M362.5,343.9v0.6c-0.6,0-1.3-0.1-2-0.1c-0.7,0-1.5,0-2.3,0.1v-0.6c0.5,0,0.8,0,0.9-0.1c0.1,0,0.1,0,0.2-0.1
		c0,0,0.1-0.1,0.1-0.2c0-0.2,0.1-0.6,0.1-1.4c0-0.8,0-1.5,0-2.1v-2.5c0-0.8,0-1.5-0.1-2.2c0-0.4,0-0.6-0.1-0.6c0,0,0-0.1-0.1-0.1
		c-0.1,0-0.2-0.1-0.3-0.1c-0.1,0-0.3,0-0.7,0v-0.6c0.6-0.1,1.1-0.1,1.5-0.2c0.4-0.1,0.9-0.2,1.5-0.4l0.2,0.1l-0.1,1.5
		c0,0.9,0,1.9,0,3.2v1.9c0,0.7,0,1.3,0,1.6c0,0.9,0,1.5,0,1.6c0,0.2,0,0.3,0.1,0.4c0,0,0,0.1,0.1,0.1c0,0,0.1,0.1,0.2,0.1
		C361.8,343.9,362,343.9,362.5,343.9"/>
	<path class="st0" d="M363.3,338.7v-0.3l0.7-0.4c0.1-0.1,0.2-0.1,0.3-0.2v-1c0-0.4,0-0.8-0.1-1.4c0.5-0.2,0.8-0.3,1-0.3
		c0,0,0.3-0.2,1-0.4l0.2,0.2l-0.1,0.8l-0.1,0.9l-0.1,1.3h0.3c0.7,0,1.2,0,1.5-0.1l-0.1,1c-0.1,0-0.1,0-0.2,0l-0.7,0h-0.7v2.5
		c0,0.8,0,1.2,0,1.4c0,0.2,0.1,0.4,0.3,0.6c0.1,0.1,0.4,0.2,0.6,0.2c0.2,0,0.3,0,0.4,0c0.1,0,0.2,0,0.4-0.1l0.1,0.3l-0.3,0.3
		c-0.2,0.2-0.4,0.4-0.6,0.6c-0.2,0.1-0.4,0.1-0.5,0.2c-0.2,0-0.3,0-0.5,0c-0.6,0-1-0.2-1.4-0.5c-0.3-0.3-0.5-0.7-0.5-1.1l0-2.5v-1.9
		h-0.2C363.8,338.7,363.6,338.7,363.3,338.7"/>
	<path class="st0" d="M372.9,344.5v-0.4c0.3-0.1,0.6-0.3,0.7-0.4c0-0.2,0.1-0.6,0.1-1c0-0.9,0.1-1.5,0.1-1.9v-3.4c0-0.1,0-0.6,0-1.5
		c0-0.6,0-0.9-0.1-1c0,0-0.1-0.1-0.1-0.1c-0.1-0.1-0.5-0.1-1.1-0.1v-0.6l1.8,0c0.3,0,0.7,0,1,0c0.7,0,1.5,0,2.3,0l1.5,0
		c0.2,0,0.6,0,1.1,0c0,0,0.1,0,0.3,0l0.1,0.1l-0.1,1.1c0,0.1,0,0.4-0.1,1.1h-0.6c0-0.6,0-1-0.1-1.1c0-0.1,0-0.1-0.1-0.2
		c-0.1,0-0.3-0.1-0.6-0.1c-0.5-0.1-1-0.1-1.5-0.1c-0.5,0-0.9,0-1.4,0.1c-0.1,0.6-0.1,1.3-0.1,2.2v1.6c0.3,0,0.7,0,1.1,0
		c0.1,0,0.5,0,1.3,0c0.3,0,0.4,0,0.5-0.1c0,0,0.1-0.1,0.1-0.2c0.1-0.2,0.1-0.5,0.1-1h0.6l0,1.7l0,1.7H379c0-0.6,0-0.9-0.1-1.1
		c-0.1-0.1-0.2-0.2-0.3-0.2c-0.3-0.1-0.8-0.1-1.3-0.1c-0.5,0-0.9,0-1.2,0v3.2c0,0.4,0,0.7,0,0.9c0.4,0,0.9,0,1.5,0
		c0.5,0,1,0,1.5-0.1c0.5,0,0.7-0.1,0.9-0.2c0,0,0.1-0.1,0.1-0.1c0.1-0.2,0.2-0.7,0.3-1.4h0.6c-0.1,1-0.2,1.8-0.2,2.5l-0.1,0.1
		c-0.3,0-0.8,0.1-1.4,0.1l-1.2,0c-1.2,0-2,0-2.5,0C375.4,344.5,374.5,344.5,372.9,344.5"/>
	<path class="st0" d="M390.7,343.9v0.6c-0.7,0-1.3-0.1-1.7-0.1c-0.5,0-0.9,0-1.3,0.1l-0.1-0.1c0-0.1,0-0.5,0.1-1.3l0-1.2v-0.6
		c0-0.9,0-1.5-0.1-1.7c-0.1-0.3-0.2-0.5-0.4-0.7c-0.2-0.2-0.5-0.3-0.9-0.3c-0.4,0-0.6,0.1-0.9,0.3c-0.2,0.2-0.4,0.3-0.4,0.5
		c0,0.1,0,0.5,0,1.2v1.3c0,0.4,0,0.8,0,1.4c0,0.2,0,0.4,0.1,0.5c0,0.1,0.1,0.1,0.1,0.1c0.1,0,0.2,0.1,0.4,0.1c0.1,0,0.3,0,0.6,0.1
		v0.6c-0.6,0-1.2,0-2,0c-0.9,0-1.6,0-2.2,0v-0.6c0.4,0,0.7,0,0.8-0.1c0.1,0,0.1-0.1,0.2-0.1c0-0.1,0.1-0.3,0.1-0.5l0-0.7
		c0-0.1,0-0.4,0-0.7v-1c0-0.5,0-1,0-1.6c0-0.3,0-0.5-0.1-0.6c0,0-0.1-0.1-0.1-0.1c-0.1,0-0.4-0.1-0.9-0.1v-0.6
		c0.9-0.2,1.5-0.3,1.8-0.3s0.6-0.2,1-0.4l0.2,0.1v1.2l1.4-1.1c0.2-0.1,0.3-0.1,0.4-0.1c0.1,0,0.3,0,0.5,0c0.5,0,0.9,0.1,1.2,0.2
		c0.3,0.1,0.5,0.3,0.7,0.5c0.2,0.2,0.3,0.5,0.4,0.7c0.1,0.2,0.1,0.6,0.1,1.1c0,0.6,0,0.9,0,1.1c0,0.1,0,0.1,0,0.2l0,0.8
		c0,0.9,0,1.4,0,1.6c0,0.2,0.1,0.3,0.1,0.4c0.1,0.1,0.2,0.1,0.5,0.1C390.3,343.9,390.5,343.9,390.7,343.9"/>
	<path class="st0" d="M394.5,344.6c-0.3-0.7-0.6-1.5-0.9-2.4l-1-2.5c-0.1-0.2-0.3-0.6-0.5-1.2c-0.1-0.2-0.2-0.3-0.3-0.3
		c-0.1-0.1-0.4-0.1-0.7-0.1v-0.6c0.7,0,1.4,0,2.1,0c0.6,0,1.3,0,1.9,0v0.6c-0.3,0-0.6,0-0.8,0.1c-0.1,0-0.1,0-0.1,0.1
		c0,0,0,0.1,0,0.1l0,0.1l0.3,0.9l0.6,1.6l0.3,0.7c0.2,0.5,0.3,0.7,0.3,0.9l0.5-1.1l0.5-1.1c0.3-0.7,0.5-1.2,0.6-1.6
		c0-0.2,0.1-0.3,0.1-0.4s0-0.1-0.1-0.2c-0.1,0-0.4-0.1-0.9-0.1v-0.6c0.5,0,1,0,1.5,0c0.4,0,1,0,1.6,0v0.6c-0.4,0-0.6,0.1-0.7,0.1
		c-0.1,0-0.1,0.1-0.2,0.2c-0.1,0.2-0.3,0.6-0.7,1.4l-0.7,1.6l-0.3,0.7c-0.1,0.3-0.3,0.6-0.4,1c-0.3,0.8-0.5,1.3-0.7,1.6H394.5z"/>
	<path class="st0" d="M400.2,344.5v-0.6c0.6,0,0.9-0.1,1-0.1c0.1,0,0.1-0.1,0.2-0.3c0-0.3,0.1-1,0.1-2.1c0-1.6,0-2.5-0.1-2.7
		c0-0.1-0.1-0.2-0.1-0.2c-0.1-0.1-0.4-0.1-1-0.1v-0.6c0.8-0.1,1.3-0.2,1.7-0.3s0.8-0.2,1.3-0.4l0.2,0.1c-0.1,0.8-0.1,1.5-0.1,2.2
		v2.6c0,0.9,0,1.4,0.1,1.6c0,0.1,0.1,0.2,0.1,0.2c0.1,0.1,0.5,0.1,1,0.1v0.6c-0.7,0-1.5,0-2.3,0
		C401.4,344.5,400.7,344.5,400.2,344.5 M402.2,333.5c0.3,0,0.6,0.1,0.8,0.3c0.2,0.2,0.3,0.5,0.3,0.8c0,0.3-0.1,0.6-0.3,0.8
		c-0.2,0.2-0.5,0.3-0.8,0.3c-0.3,0-0.6-0.1-0.8-0.3c-0.2-0.2-0.3-0.5-0.3-0.8c0-0.3,0.1-0.6,0.3-0.8
		C401.6,333.6,401.9,333.5,402.2,333.5"/>
	<path class="st0" d="M409.6,343.9v0.6c-0.6,0-1.2,0-1.9,0c-0.8,0-1.6,0-2.4,0v-0.6c0.4,0,0.7,0,0.8-0.1c0.1,0,0.1-0.1,0.2-0.1
		c0.1-0.1,0.1-0.3,0.1-0.5l0-0.7c0-0.1,0-0.4,0-0.7v-1c0-0.5,0-1,0-1.6c0-0.3,0-0.5-0.1-0.6c0,0-0.1-0.1-0.1-0.1
		c-0.1,0-0.4-0.1-0.9-0.1v-0.6c0.9-0.2,1.5-0.3,1.8-0.3s0.6-0.2,1-0.4l0.2,0.1l0,1.5c0.3-0.3,0.6-0.6,0.8-0.8
		c0.3-0.3,0.5-0.5,0.6-0.6c0.2-0.1,0.4-0.2,0.7-0.2c0.2,0,0.4,0,0.5,0.1l0,1.1c0,0.6,0,0.9,0,1l-0.3,0.1c-0.1-0.2-0.2-0.3-0.4-0.3
		c-0.2-0.1-0.4-0.2-0.6-0.2c-0.3,0-0.6,0.1-0.8,0.3c-0.2,0.2-0.3,0.4-0.4,0.6c0,0.1,0,0.5,0,1.3v0.8l0,1c0,0.4,0,0.6,0,0.7
		c0,0.1,0.1,0.2,0.2,0.2c0.1,0.1,0.3,0.1,0.5,0.1L409.6,343.9z"/>
	<path class="st0" d="M411.5,340.9c0-0.9,0.1-1.6,0.4-2.1c0.3-0.6,0.7-1,1.3-1.3c0.6-0.3,1.3-0.4,2-0.4c1.2,0,2.1,0.3,2.7,0.9
		c0.6,0.6,0.9,1.5,0.9,2.7c0,0.7-0.1,1.3-0.3,1.8c-0.2,0.5-0.4,0.9-0.7,1.2c-0.3,0.3-0.6,0.5-0.9,0.7c-0.6,0.3-1.2,0.4-1.9,0.4
		c-1.1,0-2-0.3-2.6-1C411.8,343.1,411.5,342.2,411.5,340.9 M413.6,340.6c0,1.3,0.2,2.3,0.6,2.9c0.3,0.4,0.6,0.6,1.1,0.6
		c0.4,0,0.7-0.1,1-0.4c0.3-0.4,0.5-1.1,0.5-2.2c0-0.8-0.1-1.4-0.2-2c-0.1-0.6-0.3-0.9-0.6-1.2s-0.6-0.3-0.9-0.3
		c-0.3,0-0.6,0.1-0.8,0.2c-0.2,0.2-0.4,0.4-0.5,0.8C413.7,339.3,413.6,339.8,413.6,340.6"/>
	<path class="st0" d="M428.7,343.9v0.6c-0.7,0-1.3-0.1-1.7-0.1c-0.5,0-0.9,0-1.3,0.1l-0.1-0.1c0-0.1,0-0.5,0.1-1.3l0-1.2v-0.6
		c0-0.9,0-1.5-0.1-1.7c-0.1-0.3-0.2-0.5-0.4-0.7c-0.2-0.2-0.5-0.3-0.9-0.3c-0.4,0-0.6,0.1-0.9,0.3c-0.2,0.2-0.4,0.3-0.4,0.5
		c0,0.1,0,0.5,0,1.2v1.3c0,0.4,0,0.8,0,1.4c0,0.2,0,0.4,0.1,0.5c0,0.1,0.1,0.1,0.1,0.1c0.1,0,0.2,0.1,0.4,0.1c0.1,0,0.3,0,0.6,0.1
		v0.6c-0.6,0-1.2,0-2,0c-0.9,0-1.6,0-2.2,0v-0.6c0.4,0,0.7,0,0.8-0.1c0.1,0,0.1-0.1,0.2-0.1c0-0.1,0.1-0.3,0.1-0.5l0-0.7
		c0-0.1,0-0.4,0-0.7v-1c0-0.5,0-1,0-1.6c0-0.3,0-0.5-0.1-0.6c0,0-0.1-0.1-0.1-0.1c-0.1,0-0.4-0.1-0.9-0.1v-0.6
		c0.9-0.2,1.5-0.3,1.8-0.3s0.6-0.2,1-0.4l0.2,0.1v1.2l1.4-1.1c0.2-0.1,0.3-0.1,0.4-0.1c0.1,0,0.3,0,0.5,0c0.5,0,0.9,0.1,1.2,0.2
		c0.3,0.1,0.5,0.3,0.7,0.5c0.2,0.2,0.3,0.5,0.4,0.7c0.1,0.2,0.1,0.6,0.1,1.1c0,0.6,0,0.9,0,1.1c0,0.1,0,0.1,0,0.2l0,0.8
		c0,0.9,0,1.4,0,1.6c0,0.2,0.1,0.3,0.1,0.4c0.1,0.1,0.2,0.1,0.5,0.1C428.3,343.9,428.5,343.9,428.7,343.9"/>
	<path class="st0" d="M429.5,344.5v-0.6c0.4,0,0.7,0,0.8-0.1c0.1,0,0.1-0.1,0.2-0.1c0-0.1,0.1-0.3,0.1-0.5l0-0.7c0-0.1,0-0.4,0-0.7
		v-1c0-0.5,0-1,0-1.6c0-0.3,0-0.5-0.1-0.5s-0.1-0.1-0.1-0.1c-0.1,0-0.4-0.1-0.9-0.1v-0.6c0.9-0.2,1.5-0.3,1.8-0.3
		c0.3-0.1,0.6-0.2,1-0.4l0.2,0.1v1.2l1.4-1.1c0.2-0.1,0.3-0.1,0.4-0.1c0.1,0,0.3,0,0.5,0c0.6,0,1.1,0.1,1.4,0.3
		c0.3,0.2,0.6,0.5,0.8,1l1.4-1.1c0.2-0.1,0.3-0.1,0.4-0.1c0.1,0,0.3,0,0.5,0c0.5,0,0.9,0.1,1.2,0.2c0.3,0.1,0.5,0.3,0.7,0.5
		c0.2,0.2,0.3,0.4,0.4,0.7c0.1,0.2,0.1,0.6,0.1,1.1c0,0.6,0,0.9,0,1.1c0,0.1,0,0.1,0,0.2v0.8c0,0.8,0,1.3,0,1.6
		c0,0.2,0.1,0.4,0.1,0.4c0.1,0.1,0.2,0.1,0.5,0.1c0.1,0,0.2,0,0.4,0v0.6c-0.7,0-1.3-0.1-1.7-0.1c-0.5,0-0.9,0-1.3,0.1l-0.1-0.1
		l0.1-1.4c0-0.6,0-1,0-1.4V341c0-0.9,0-1.5-0.1-1.7s-0.2-0.4-0.4-0.6c-0.2-0.1-0.4-0.2-0.7-0.2c-0.3,0-0.6,0.1-0.8,0.2
		c-0.2,0.2-0.4,0.3-0.4,0.4c-0.1,0.1-0.1,0.4-0.1,0.8v1.8l0,0.8l0,0.6c0,0.2,0,0.3,0.1,0.4c0,0.1,0.1,0.1,0.1,0.2c0,0,0.1,0,0.3,0.1
		c0.3,0,0.5,0.1,0.6,0.1v0.6c-0.5,0-1.1,0-1.9,0c-0.9,0-1.6,0-2.1,0v-0.6c0.1,0,0.2,0,0.4,0c0.2,0,0.4,0,0.4-0.1
		c0.1,0,0.1-0.1,0.1-0.2c0-0.1,0.1-0.4,0.1-0.8l0-1.3v-1.1c0-0.5,0-0.9-0.1-1.1c-0.1-0.2-0.2-0.4-0.4-0.5c-0.2-0.1-0.4-0.2-0.8-0.2
		c-0.3,0-0.6,0.1-0.9,0.3c-0.2,0.2-0.4,0.3-0.4,0.5c0,0.1,0,0.5,0,1.2v1.3c0,0.7,0,1.2,0,1.6c0,0.2,0,0.3,0.1,0.4
		c0,0.1,0.1,0.1,0.2,0.1c0.1,0,0.3,0,0.7,0.1v0.6c-0.5,0-1.2,0-2,0C430.6,344.5,430,344.5,429.5,344.5"/>
	<path class="st0" d="M449.8,343.3l-0.3,0.7c-0.4,0.3-0.8,0.4-1.3,0.6c-0.3,0.1-0.7,0.1-1.1,0.1c-0.5,0-0.9-0.1-1.3-0.2
		c-0.4-0.1-0.7-0.3-1-0.5c-0.3-0.2-0.5-0.5-0.7-0.7c-0.2-0.3-0.4-0.6-0.4-1c-0.1-0.4-0.1-0.8-0.1-1.3c0-0.7,0.1-1.3,0.3-1.8
		c0.1-0.4,0.3-0.6,0.4-0.8c0.1-0.1,0.4-0.3,0.8-0.6c0.4-0.3,0.7-0.5,0.9-0.5c0.4-0.2,0.8-0.2,1.3-0.2c0.7,0,1.2,0.1,1.7,0.4
		c0.4,0.3,0.7,0.6,0.9,1.1c0.2,0.4,0.3,1,0.3,1.6c0,0.1,0,0.3,0,0.4c-0.1,0-0.3,0.1-0.6,0.1c-0.3,0.1-0.6,0.1-0.7,0.1
		c-0.4,0-0.9,0-1.5,0.1s-1,0-1,0c-0.1,0-0.1,0-0.2,0h-0.5c0,0.8,0.3,1.4,0.7,1.9c0.5,0.5,1,0.7,1.7,0.7c0.3,0,0.6,0,0.8-0.1
		c0.2-0.1,0.6-0.2,1-0.4L449.8,343.3z M448,340.2c0-0.8-0.1-1.4-0.3-1.7c-0.2-0.3-0.6-0.5-0.9-0.5c-0.4,0-0.7,0.2-1,0.5
		c-0.3,0.3-0.4,0.9-0.4,1.7c0.3,0,0.8,0.1,1.5,0.1C447.4,340.3,447.7,340.2,448,340.2"/>
	<path class="st0" d="M459.7,343.9v0.6c-0.7,0-1.3-0.1-1.7-0.1c-0.5,0-0.9,0-1.3,0.1l-0.1-0.1c0-0.1,0-0.5,0.1-1.3l0-1.2v-0.6
		c0-0.9,0-1.5-0.1-1.7c-0.1-0.3-0.2-0.5-0.4-0.7c-0.2-0.2-0.5-0.3-0.9-0.3c-0.4,0-0.6,0.1-0.9,0.3c-0.2,0.2-0.4,0.3-0.4,0.5
		c0,0.1,0,0.5,0,1.2v1.3c0,0.4,0,0.8,0,1.4c0,0.2,0,0.4,0.1,0.5c0,0.1,0.1,0.1,0.1,0.1c0.1,0,0.2,0.1,0.4,0.1c0.1,0,0.3,0,0.6,0.1
		v0.6c-0.5,0-1.2,0-2,0c-0.9,0-1.6,0-2.2,0v-0.6c0.4,0,0.7,0,0.8-0.1c0.1,0,0.1-0.1,0.2-0.1c0.1-0.1,0.1-0.3,0.1-0.5l0-0.7
		c0-0.1,0-0.4,0-0.7v-1c0-0.5,0-1,0-1.6c0-0.3,0-0.5-0.1-0.6c0,0-0.1-0.1-0.1-0.1c-0.1,0-0.4-0.1-0.9-0.1v-0.6
		c0.9-0.2,1.5-0.3,1.8-0.3c0.3-0.1,0.6-0.2,1-0.4l0.2,0.1v1.2l1.4-1.1c0.2-0.1,0.3-0.1,0.4-0.1c0.1,0,0.3,0,0.5,0
		c0.5,0,0.9,0.1,1.2,0.2c0.3,0.1,0.5,0.3,0.7,0.5c0.2,0.2,0.3,0.5,0.4,0.7c0.1,0.2,0.1,0.6,0.1,1.1c0,0.6,0,0.9,0,1.1
		c0,0.1,0,0.1,0,0.2l0,0.8c0,0.9,0,1.4,0,1.6c0,0.2,0.1,0.3,0.1,0.4c0.1,0.1,0.2,0.1,0.4,0.1C459.4,343.9,459.5,343.9,459.7,343.9"
		/>
	<path class="st0" d="M460.4,338.7v-0.3l0.7-0.4c0.1-0.1,0.2-0.1,0.3-0.2v-1c0-0.4,0-0.8-0.1-1.4c0.5-0.2,0.8-0.3,1-0.3
		c0,0,0.3-0.2,1-0.4l0.2,0.2l-0.1,0.8l-0.1,0.9l-0.1,1.3h0.2c0.7,0,1.2,0,1.5-0.1l-0.1,1c-0.1,0-0.1,0-0.2,0l-0.7,0h-0.7v2.5
		c0,0.8,0,1.2,0,1.4c0,0.2,0.1,0.4,0.3,0.6c0.2,0.1,0.4,0.2,0.7,0.2c0.2,0,0.3,0,0.4,0c0.1,0,0.2,0,0.4-0.1l0.1,0.3l-0.3,0.3
		c-0.2,0.2-0.4,0.4-0.6,0.6c-0.2,0.1-0.4,0.1-0.5,0.2c-0.2,0-0.3,0-0.5,0c-0.6,0-1.1-0.2-1.4-0.5c-0.3-0.3-0.5-0.7-0.5-1.1l0-2.5
		v-1.9h-0.2C460.9,338.7,460.7,338.7,460.4,338.7"/>
</g>
</svg>
