<?xml version="1.0" encoding="UTF-8"?>
<svg id="Capa_2" data-name="Capa 2" xmlns="http://www.w3.org/2000/svg" viewBox="0 0 172.5 111.1">
  <defs>
    <style>
      .cls-1 {
        fill: #305094;
      }

      .cls-1, .cls-2 {
        stroke-width: 0px;
      }

      .cls-2 {
        fill: #d8d9ea;
      }
    </style>
  </defs>
  <g id="layer">
    <g>
      <polygon class="cls-2" points="57.8 41.6 76.6 33.8 76.6 49.3 57.8 41.6"/>
      <polygon class="cls-2" points="79.6 35.4 79.6 48.1 92.1 43 92.1 39.8 98.9 37 98.9 27.8 79.6 35.4"/>
      <polygon class="cls-1" points="76.6 7.6 95.9 0 172.5 30.5 153.4 38.7 76.6 7.6"/>
      <polygon class="cls-1" points="76.6 18.3 19.1 41.4 76.6 64.9 133.8 41.6 110.9 32.2 92.1 39.8 95.7 41.6 76.6 49.3 57.8 41.6 76.6 33.8 79.6 35.4 98.9 27.8 76.6 18.3"/>
      <polygon class="cls-1" points="0 64.9 19.1 57 76.6 80.1 133.8 57 153.2 64.9 76.6 95.7 0 64.9"/>
      <polygon class="cls-2" points="153.4 38.7 153.2 64.9 76.6 95.7 76.6 111.1 172.5 72.7 172.5 30.5 153.4 38.7"/>
    </g>
  </g>
</svg>