<svg width="164" height="95" viewBox="0 0 164 95" fill="none" xmlns="http://www.w3.org/2000/svg">
<path d="M133.695 38.2521H141.919C144.35 38.2521 146.173 38.846 147.389 40.034C148.605 41.2219 149.214 42.8537 149.214 44.9293C149.214 47.105 148.605 48.7857 147.389 49.9715C146.173 51.1572 144.35 51.7523 141.919 51.7566H133.695V38.2521ZM36.441 46.5023L26.8265 75.6393L0 0H21.1773L36.441 46.5023ZM76.4197 42.5273L82.1015 26.5065C83.5403 26.3134 84.9905 26.2185 86.4421 26.2226C92.9083 26.2226 98.4433 27.9294 103.047 31.3431C107.651 34.7568 110.728 39.4128 112.28 45.3111H97.6981C96.7166 43.1532 95.1072 41.3415 93.0802 40.1123C91.0237 38.907 88.6753 38.2906 86.292 38.3304C82.2408 38.3304 78.9511 39.7294 76.4229 42.5273M97.6981 62.6928H112.283C110.734 68.5867 107.656 73.2275 103.05 76.6151C98.4444 80.0026 92.9094 81.6964 86.4454 81.6964C81.1714 81.6964 76.4512 80.5215 72.2847 78.1718C69.794 76.7758 67.56 74.9646 65.6793 72.8163L72.5654 53.4047C72.5654 53.6038 72.5654 53.7996 72.5654 54.0019C72.5654 58.7602 73.8328 62.5622 76.3675 65.408C78.9022 68.2539 82.2136 69.6757 86.3018 69.6735C88.6859 69.7127 91.0347 69.0939 93.09 67.8851C95.1167 66.6584 96.7262 64.8488 97.7079 62.6928M163.178 81.6997L150.61 60.1309C154.592 58.9386 157.604 56.9206 159.647 54.077C161.682 51.2585 162.756 47.8602 162.712 44.3843C162.75 41.3263 161.974 38.3133 160.463 35.6543C158.962 33.0434 156.699 30.9874 153.675 29.4862C150.651 27.9849 146.991 27.2354 142.696 27.2376H120.426V81.6997H133.692V61.1393H136.874L148.202 81.6997H163.178Z" fill="white"/>
<path d="M159.787 94.7576C159.46 94.6201 159.177 94.3941 158.972 94.1049C158.772 93.8247 158.665 93.4894 158.665 93.1454H159.588C159.615 93.4461 159.752 93.7262 159.973 93.9319C160.246 94.1617 160.596 94.2785 160.953 94.2583C161.306 94.2782 161.654 94.1679 161.932 93.9482C162.047 93.8509 162.14 93.7288 162.202 93.591C162.264 93.4531 162.294 93.3031 162.291 93.1519C162.299 92.9266 162.225 92.706 162.082 92.5319C161.939 92.3703 161.758 92.246 161.556 92.1696C161.278 92.0651 160.995 91.9758 160.708 91.902C160.348 91.8142 159.996 91.6996 159.654 91.5593C159.385 91.4412 159.151 91.2557 158.975 91.0208C158.777 90.7339 158.678 90.39 158.694 90.0418C158.688 89.7003 158.784 89.3648 158.972 89.079C159.162 88.7914 159.432 88.5648 159.748 88.4263C160.11 88.2678 160.502 88.1899 160.897 88.1979C161.445 88.1747 161.985 88.3393 162.428 88.6646C162.621 88.812 162.781 88.9988 162.897 89.2125C163.013 89.4263 163.082 89.6622 163.1 89.9047H162.147C162.106 89.6368 161.962 89.3955 161.746 89.2324C161.478 89.0287 161.148 88.9258 160.812 88.942C160.493 88.9285 160.178 89.0279 159.924 89.2226C159.811 89.3191 159.722 89.4401 159.662 89.5764C159.603 89.7126 159.575 89.8606 159.582 90.0091C159.572 90.2261 159.646 90.4384 159.787 90.6031C159.926 90.7569 160.1 90.8755 160.293 90.949C160.492 91.0306 160.773 91.1188 161.135 91.2232C161.497 91.3167 161.851 91.4356 162.196 91.5789C162.467 91.6995 162.703 91.8871 162.881 92.1239C163.087 92.4137 163.188 92.7646 163.168 93.1193C163.17 93.443 163.08 93.7606 162.911 94.0364C162.726 94.3346 162.461 94.5753 162.147 94.7315C161.778 94.9179 161.369 95.0099 160.956 94.9991C160.551 95.0062 160.149 94.9261 159.778 94.7641M41.7246 88.1816L39.3096 94.9926H37.234L34.8157 88.1816H36.5813L38.2718 93.338L39.9688 88.1946L41.7246 88.1816ZM44.0744 89.5098V90.8903H46.2936V92.1696H44.0744V93.6643H46.5874V94.9926H42.4263V88.1816H46.6004V89.5098H44.0744ZM51.1368 94.9926L49.7204 92.4209H49.3222V94.9926H47.6643V88.1816H50.4482C50.9216 88.1688 51.3916 88.2649 51.8221 88.4622C52.1759 88.6295 52.4714 88.8989 52.6706 89.2357C52.8589 89.5678 52.9557 89.944 52.9513 90.3257C52.9577 90.7614 52.8226 91.1874 52.5662 91.5397C52.2864 91.9127 51.8883 92.1796 51.437 92.2969L53.0101 94.9926H51.1368ZM49.3222 91.2493H50.3502C50.5995 91.268 50.846 91.187 51.0356 91.0241C51.1146 90.9402 51.1756 90.8411 51.2149 90.7328C51.2542 90.6245 51.2709 90.5093 51.264 90.3943C51.2697 90.2823 51.2524 90.1704 51.2131 90.0654C51.1738 89.9604 51.1134 89.8646 51.0356 89.784C50.846 89.621 50.5995 89.5401 50.3502 89.5588H49.3222V91.2493ZM54.1229 89.8264C54.3993 89.3174 54.8147 88.8975 55.3207 88.6156C55.8511 88.3206 56.45 88.1708 57.0569 88.1816C57.7876 88.1612 58.5046 88.3826 59.0966 88.8114C59.6636 89.2319 60.0645 89.8384 60.2291 90.5248H58.4406C58.3198 90.2603 58.1219 90.0384 57.8728 89.8884C57.6201 89.7387 57.3309 89.6618 57.0373 89.6665C56.8082 89.6588 56.5802 89.702 56.3698 89.7928C56.1593 89.8836 55.9716 90.0199 55.82 90.1919C55.517 90.5958 55.3533 91.0871 55.3533 91.592C55.3533 92.0969 55.517 92.5881 55.82 92.992C55.9716 93.164 56.1593 93.3003 56.3698 93.3911C56.5802 93.482 56.8082 93.5251 57.0373 93.5175C57.3304 93.5209 57.619 93.4454 57.8728 93.2988C58.124 93.144 58.3221 92.9163 58.4406 92.6461H60.2291C60.0653 93.332 59.6642 93.9377 59.0966 94.3562C58.5025 94.7801 57.7865 94.9989 57.0569 94.9795C56.45 94.9903 55.8511 94.8405 55.3207 94.5455C54.8157 94.2652 54.4004 93.8477 54.1229 93.3412C53.8421 92.7957 53.6956 92.1909 53.6956 91.5773C53.6956 90.9637 53.8421 90.3589 54.1229 89.8133M62.6604 94.5585C62.144 94.2731 61.7153 93.8522 61.4203 93.3412C61.1195 92.8049 60.9616 92.2003 60.9616 91.5854C60.9616 90.9706 61.1195 90.366 61.4203 89.8297C61.717 89.3217 62.1455 88.9033 62.6604 88.6189C63.188 88.331 63.7793 88.1801 64.3803 88.1801C64.9813 88.1801 65.5727 88.331 66.1002 88.6189C66.6128 88.9032 67.0381 89.3217 67.3306 89.8297C67.6346 90.3631 67.7901 90.9683 67.781 91.5822C67.7887 92.1984 67.6321 92.8056 67.3273 93.3412C67.0333 93.8508 66.6071 94.2714 66.0937 94.5585C65.5663 94.8433 64.9764 94.9924 64.3771 94.9924C63.7777 94.9924 63.1878 94.8433 62.6604 94.5585ZM65.6531 92.9855C65.9662 92.5841 66.1362 92.0896 66.1362 91.5805C66.1362 91.0715 65.9662 90.577 65.6531 90.1756C65.4921 90.0005 65.2947 89.8628 65.0749 89.772C64.855 89.6813 64.6179 89.6397 64.3803 89.6502C64.141 89.6389 63.902 89.6798 63.68 89.7699C63.458 89.8601 63.2582 89.9974 63.0945 90.1723C62.7856 90.5768 62.6183 91.0716 62.6183 91.5805C62.6183 92.0895 62.7856 92.5843 63.0945 92.9888C63.4345 93.3268 63.8944 93.5165 64.3738 93.5165C64.8532 93.5165 65.3131 93.3268 65.6531 92.9888M72.1802 94.9958L70.7639 92.4242H70.3657V94.9958H68.7045V88.1816H71.472C71.9455 88.1685 72.4156 88.2645 72.846 88.4622C73.1998 88.6295 73.4953 88.8989 73.6945 89.2357C73.8852 89.567 73.9833 89.9435 73.9785 90.3257C73.9832 90.7612 73.8482 91.1867 73.5934 91.5397C73.3128 91.9119 72.915 92.1787 72.4642 92.2969L74.034 94.9926L72.1802 94.9958ZM70.3657 91.2526H71.3937C71.5167 91.2621 71.6403 91.2471 71.7574 91.2085C71.8745 91.1698 71.9827 91.1083 72.0758 91.0274C72.1555 90.944 72.2169 90.8449 72.2562 90.7365C72.2956 90.628 72.3119 90.5126 72.3043 90.3975C72.3108 90.2855 72.2938 90.1733 72.2545 90.0683C72.2151 89.9632 72.1543 89.8674 72.0758 89.7872C71.9827 89.7063 71.8745 89.6448 71.7574 89.6061C71.6403 89.5675 71.5167 89.5525 71.3937 89.562H70.3657V91.2526ZM77.304 89.846C77.5859 89.3374 78.0011 88.9154 78.505 88.6254C79.0179 88.3302 79.6006 88.178 80.1923 88.1848C80.8653 88.1699 81.5279 88.3526 82.0982 88.7103C82.6444 89.0672 83.0601 89.5917 83.2829 90.205H82.2418C82.0732 89.8226 81.7949 89.4989 81.4422 89.2748C81.0647 89.0504 80.6314 88.9373 80.1923 88.9485C79.7529 88.9433 79.3201 89.056 78.9391 89.2748C78.5684 89.4947 78.2674 89.8149 78.071 90.1984C77.8626 90.6346 77.7545 91.1119 77.7545 91.5952C77.7545 92.0786 77.8626 92.5559 78.071 92.992C78.2664 93.3763 78.5676 93.6968 78.9391 93.9156C79.3201 94.1345 79.7529 94.2472 80.1923 94.242C80.6314 94.2532 81.0647 94.14 81.4422 93.9156C81.796 93.6957 82.0748 93.3737 82.2418 92.992H83.2829C83.0598 93.6008 82.6438 94.12 82.0982 94.4704C81.5276 94.827 80.865 95.0085 80.1923 94.9926C79.6013 95.0001 79.019 94.8503 78.505 94.5585C78.0023 94.2713 77.5871 93.8528 77.304 93.3478C77.015 92.8088 76.8637 92.2068 76.8637 91.5952C76.8637 90.9837 77.015 90.3816 77.304 89.8427M85.9035 94.5585C85.3962 94.2711 84.9775 93.8501 84.6928 93.3412C84.4014 92.8025 84.2488 92.1996 84.2488 91.5871C84.2488 90.9746 84.4014 90.3717 84.6928 89.8329C84.9784 89.3248 85.3969 88.904 85.9035 88.6156C86.4244 88.3308 87.0086 88.1816 87.6022 88.1816C88.1959 88.1816 88.78 88.3308 89.3009 88.6156C89.8053 88.9018 90.2217 89.3205 90.5052 89.8264C90.7943 90.3682 90.9455 90.9729 90.9455 91.5871C90.9455 92.2012 90.7943 92.8059 90.5052 93.3478C90.2217 93.8536 89.8053 94.2723 89.3009 94.5585C88.78 94.8433 88.1959 94.9926 87.6022 94.9926C87.0086 94.9926 86.4244 94.8433 85.9035 94.5585ZM88.8571 93.9058C89.2331 93.6867 89.5379 93.3638 89.735 92.9757C89.9454 92.5396 90.0547 92.0616 90.0547 91.5773C90.0547 91.093 89.9454 90.615 89.735 90.1789C89.5353 89.7954 89.2323 89.4755 88.8603 89.2553C88.4731 89.0433 88.0388 88.9322 87.5973 88.9322C87.1559 88.9322 86.7216 89.0433 86.3343 89.2553C85.9623 89.4755 85.6594 89.7954 85.4597 90.1789C85.2492 90.615 85.1399 91.093 85.1399 91.5773C85.1399 92.0616 85.2492 92.5396 85.4597 92.9757C85.6568 93.3648 85.963 93.6879 86.3409 93.9058C86.7256 94.1199 87.1587 94.2322 87.599 94.2322C88.0393 94.2322 88.4723 94.1199 88.8571 93.9058ZM97.4403 94.9861H96.5526L92.9822 89.5718V94.9861H92.0945V88.1816H92.9822L96.5526 93.586V88.1816H97.4403V94.9861ZM99.8814 94.7511C99.5547 94.6124 99.2725 94.3866 99.0655 94.0984C98.8646 93.8189 98.7572 93.4831 98.7587 93.1389H99.6856C99.7123 93.4413 99.8508 93.7229 100.074 93.9287C100.346 94.1593 100.697 94.2762 101.053 94.255C101.406 94.2732 101.754 94.1631 102.032 93.945C102.147 93.8468 102.239 93.724 102.301 93.5857C102.362 93.4473 102.392 93.2968 102.388 93.1454C102.398 92.9199 102.324 92.6987 102.179 92.5253C102.036 92.3638 101.855 92.2395 101.654 92.1631C101.375 92.0567 101.091 91.9673 100.802 91.8955C100.442 91.8063 100.09 91.6906 99.7476 91.5495C99.4788 91.4314 99.245 91.246 99.0688 91.0111C98.8694 90.7248 98.7707 90.3804 98.7881 90.032C98.7791 89.685 98.8758 89.3436 99.0655 89.0529C99.2574 88.7662 99.5267 88.5398 99.8422 88.4002C100.205 88.2416 100.598 88.1637 100.994 88.1718C101.544 88.1489 102.085 88.3135 102.528 88.6385C102.722 88.7865 102.882 88.9739 102.997 89.1882C103.113 89.4025 103.182 89.6389 103.2 89.8819H102.244C102.226 89.7487 102.181 89.6205 102.112 89.505C102.043 89.3896 101.951 89.2891 101.843 89.2096C101.577 89.0034 101.246 88.8992 100.909 88.9159C100.588 88.902 100.272 89.0026 100.018 89.1998C99.9072 89.2969 99.8199 89.4184 99.7633 89.5549C99.7066 89.6913 99.6823 89.8389 99.6921 89.9863C99.6831 90.2032 99.7565 90.4154 99.8977 90.5803C100.038 90.7329 100.211 90.8523 100.404 90.9295C100.603 91.0078 100.887 91.0992 101.249 91.2003C101.61 91.2948 101.965 91.4147 102.309 91.5593C102.581 91.6807 102.818 91.8681 102.998 92.1043C103.202 92.3962 103.302 92.7477 103.282 93.103C103.283 93.4252 103.195 93.7413 103.027 94.0168C102.842 94.3168 102.577 94.5588 102.261 94.7152C101.891 94.902 101.48 94.994 101.066 94.9828C100.661 94.9896 100.259 94.9095 99.8879 94.7478M108.765 88.1718V88.8963H106.908V94.9828H106.001V88.9061H104.134V88.1816L108.765 88.1718ZM113.448 94.9828L111.816 92.199H110.743V94.9828H109.855V88.1816H112.051C112.501 88.1679 112.948 88.2583 113.357 88.4459C113.687 88.5999 113.964 88.8487 114.153 89.1606C114.333 89.4715 114.425 89.826 114.417 90.1854C114.424 90.6322 114.281 91.0684 114.013 91.4255C113.708 91.8045 113.275 92.0587 112.795 92.1402L114.505 94.9926L113.448 94.9828ZM110.749 91.4843H112.054C112.25 91.4996 112.447 91.476 112.633 91.415C112.82 91.3539 112.993 91.2566 113.141 91.1285C113.264 91.0031 113.359 90.8538 113.422 90.6898C113.484 90.5259 113.512 90.3508 113.504 90.1756C113.514 90.0024 113.487 89.829 113.425 89.6669C113.363 89.5049 113.268 89.3578 113.145 89.2357C112.835 88.9941 112.446 88.8776 112.054 88.9093H110.749V91.4843ZM116.663 88.1718V92.4372C116.643 92.6784 116.672 92.921 116.748 93.1508C116.823 93.3807 116.944 93.593 117.103 93.7753C117.447 94.056 117.878 94.2093 118.322 94.2093C118.766 94.2093 119.197 94.056 119.541 93.7753C119.7 93.593 119.821 93.3807 119.897 93.1508C119.973 92.921 120.001 92.6784 119.982 92.4372V88.1816H120.863V92.4242C120.883 92.918 120.77 93.4082 120.537 93.8438C120.324 94.2137 120.006 94.5116 119.623 94.6989C119.217 94.8838 118.776 94.9794 118.33 94.9794C117.884 94.9794 117.444 94.8838 117.038 94.6989C116.656 94.5114 116.339 94.2135 116.127 93.8438C115.895 93.4076 115.783 92.9179 115.801 92.4242V88.1816L116.663 88.1718ZM122.442 89.8329C122.724 89.3244 123.139 88.9023 123.643 88.6123C124.154 88.3222 124.733 88.1735 125.321 88.1816C125.994 88.1666 126.657 88.3493 127.227 88.707C127.773 89.0639 128.189 89.5884 128.411 90.2017H127.37C127.203 89.8187 126.924 89.4948 126.571 89.2716C126.193 89.0467 125.76 88.9335 125.321 88.9452C124.882 88.9396 124.451 89.0524 124.071 89.2716C123.699 89.4909 123.397 89.8112 123.2 90.1952C122.991 90.6313 122.883 91.1086 122.883 91.592C122.883 92.0753 122.991 92.5526 123.2 92.9888C123.395 93.3739 123.698 93.6946 124.071 93.9124C124.451 94.1316 124.882 94.2443 125.321 94.2387C125.76 94.2504 126.193 94.1373 126.571 93.9124C126.925 93.6934 127.205 93.3711 127.37 92.9888H128.411C128.188 93.5976 127.772 94.1167 127.227 94.4672C126.656 94.8237 125.994 95.0052 125.321 94.9893C124.73 94.9968 124.148 94.847 123.634 94.5553C123.131 94.2681 122.716 93.8495 122.433 93.3445C122.144 92.8056 121.992 92.2035 121.992 91.592C121.992 90.9804 122.144 90.3784 122.433 89.8394M129.818 89.8394C130.1 89.3309 130.515 88.9089 131.019 88.6189C131.532 88.3237 132.115 88.1715 132.706 88.1783C133.379 88.1634 134.042 88.346 134.612 88.7037C135.158 89.0607 135.574 89.5852 135.797 90.1984H134.756C134.587 89.8161 134.309 89.4924 133.956 89.2683C133.579 89.0439 133.145 88.9308 132.706 88.942C132.267 88.9368 131.834 89.0494 131.453 89.2683C131.082 89.4881 130.781 89.8083 130.585 90.1919C130.377 90.6281 130.269 91.1053 130.269 91.5887C130.269 92.0721 130.377 92.5493 130.585 92.9855C130.78 93.3698 131.082 93.6903 131.453 93.9091C131.834 94.128 132.267 94.2407 132.706 94.2354C133.145 94.2466 133.579 94.1335 133.956 93.9091C134.31 93.6892 134.589 93.3672 134.756 92.9855H135.797C135.574 93.5943 135.158 94.1135 134.612 94.4639C134.042 94.8204 133.379 95.002 132.706 94.9861C132.115 94.9936 131.533 94.8438 131.019 94.552C130.516 94.2648 130.101 93.8463 129.818 93.3412C129.529 92.8023 129.378 92.2003 129.378 91.5887C129.378 90.9772 129.529 90.3751 129.818 89.8362M137.977 94.9861H137.07V88.1816H137.957L137.977 94.9861ZM140.816 94.552C140.308 94.2654 139.889 93.8442 139.606 93.3347C139.314 92.7959 139.162 92.1931 139.162 91.5805C139.162 90.968 139.314 90.3652 139.606 89.8264C139.89 89.3175 140.309 88.8965 140.816 88.6091C141.337 88.3243 141.92 88.175 142.513 88.175C143.107 88.175 143.69 88.3243 144.21 88.6091C144.716 88.8943 145.134 89.3131 145.418 89.8199C145.707 90.3617 145.858 90.9664 145.858 91.5805C145.858 92.1947 145.707 92.7994 145.418 93.3412C145.134 93.848 144.716 94.2668 144.21 94.552C143.69 94.8368 143.107 94.9861 142.513 94.9861C141.92 94.9861 141.337 94.8368 140.816 94.552ZM143.754 93.8993C144.13 93.6797 144.436 93.3569 144.635 92.9692C144.845 92.533 144.954 92.055 144.954 91.5708C144.954 91.0865 144.845 90.6085 144.635 90.1723C144.434 89.7896 144.131 89.4699 143.76 89.2487C143.373 89.0368 142.938 88.9257 142.497 88.9257C142.056 88.9257 141.621 89.0368 141.234 89.2487C140.861 89.4676 140.558 89.7879 140.359 90.1723C140.147 90.6079 140.036 91.0861 140.036 91.5708C140.036 92.0554 140.147 92.5336 140.359 92.9692C140.556 93.3572 140.861 93.6802 141.237 93.8993C141.622 94.1133 142.055 94.2257 142.495 94.2257C142.936 94.2257 143.369 94.1133 143.754 93.8993ZM152.34 94.9795H151.452L147.882 89.5653V94.9795H146.991V88.1816H147.882L151.452 93.586V88.1816H152.34V94.9795ZM154.739 88.8995V91.184H157.219V91.9151H154.739V94.2583H157.513V94.9893H153.854V88.1816H157.516V88.9126L154.739 88.8995Z" fill="white"/>
<path d="M61.7923 0L34.8157 81.6964H53.8782L82.8554 0H61.7923Z" fill="white"/>
</svg>
