<svg width="164" height="82" viewBox="0 0 164 82" fill="none" xmlns="http://www.w3.org/2000/svg">
<path d="M133.695 38.2521H141.919C144.35 38.2521 146.173 38.846 147.389 40.034C148.605 41.2219 149.214 42.8537 149.214 44.9293C149.214 47.105 148.605 48.7857 147.389 49.9715C146.173 51.1572 144.35 51.7523 141.919 51.7566H133.695V38.2521ZM36.441 46.5023L26.8265 75.6393L0 0H21.1773L36.441 46.5023ZM76.4197 42.5273L82.1015 26.5065C83.5403 26.3134 84.9905 26.2185 86.4421 26.2226C92.9083 26.2226 98.4433 27.9294 103.047 31.3431C107.651 34.7568 110.728 39.4128 112.28 45.3111H97.6981C96.7166 43.1532 95.1072 41.3415 93.0802 40.1123C91.0237 38.907 88.6753 38.2906 86.292 38.3304C82.2408 38.3304 78.9511 39.7294 76.4229 42.5273M97.6981 62.6928H112.283C110.734 68.5867 107.656 73.2275 103.05 76.6151C98.4444 80.0026 92.9094 81.6964 86.4454 81.6964C81.1714 81.6964 76.4512 80.5215 72.2847 78.1718C69.794 76.7758 67.56 74.9646 65.6793 72.8163L72.5654 53.4047C72.5654 53.6038 72.5654 53.7996 72.5654 54.0019C72.5654 58.7602 73.8328 62.5622 76.3675 65.408C78.9022 68.2539 82.2136 69.6757 86.3018 69.6735C88.6859 69.7127 91.0347 69.0939 93.09 67.8851C95.1167 66.6584 96.7262 64.8488 97.7079 62.6928M163.178 81.6997L150.61 60.1309C154.592 58.9386 157.604 56.9206 159.647 54.077C161.682 51.2585 162.756 47.8602 162.712 44.3843C162.75 41.3263 161.974 38.3133 160.463 35.6543C158.962 33.0434 156.699 30.9874 153.675 29.4862C150.651 27.9849 146.991 27.2354 142.696 27.2376H120.426V81.6997H133.692V61.1393H136.874L148.202 81.6997H163.178Z" fill="white"/>
<path d="M61.7924 0L34.8157 81.6964H53.8782L82.8554 0H61.7924Z" fill="white"/>
</svg>
