<svg width="129" height="75" viewBox="0 0 129 75" fill="none" xmlns="http://www.w3.org/2000/svg">
<path d="M105.549 30.1992H112.042C113.96 30.1992 115.4 30.6681 116.36 31.6059C117.32 32.5438 117.8 33.832 117.8 35.4707C117.8 37.1883 117.32 38.5152 116.36 39.4514C115.4 40.3875 113.96 40.8573 112.042 40.8607H105.549V30.1992ZM28.7692 36.7125L21.1788 59.7155L0 0H16.7189L28.7692 36.7125ZM60.3313 33.5744L64.817 20.9263C65.9528 20.7738 67.0977 20.6989 68.2438 20.7022C73.3487 20.7022 77.7184 22.0497 81.353 24.7447C84.9876 27.4397 87.4172 31.1155 88.6419 35.7721H77.1301C76.3552 34.0685 75.0847 32.6382 73.4844 31.6678C71.8608 30.7162 70.0068 30.2295 68.1252 30.261C64.9269 30.261 62.3298 31.3654 60.3339 33.5744M77.1301 49.4946H88.6445C87.4215 54.1477 84.9919 57.8115 81.3556 60.4859C77.7193 63.1603 73.3495 64.4975 68.2463 64.4975C64.0827 64.4975 60.3562 63.57 57.0669 61.7149C55.1005 60.6128 53.3369 59.1829 51.8521 57.4869L57.2885 42.1618C57.2885 42.319 57.2885 42.4736 57.2885 42.6333C57.2885 46.3899 58.289 49.3915 60.2901 51.6382C62.2912 53.8849 64.9055 55.0074 68.133 55.0057C70.0152 55.0366 71.8695 54.5481 73.4921 53.5938C75.0921 52.6253 76.3627 51.1967 77.1378 49.4946M128.825 64.5001L118.903 47.472C122.046 46.5307 124.424 44.9376 126.037 42.6926C127.644 40.4674 128.492 37.7846 128.457 35.0404C128.487 32.6262 127.874 30.2475 126.681 28.1483C125.496 26.0871 123.71 24.4639 121.322 23.2787C118.935 22.0935 116.046 21.5017 112.655 21.5035H95.0728V64.5001H105.546V48.2681H108.058L117.001 64.5001H128.825Z" fill="#1D1D1B"/>
<path d="M126.148 74.8087C125.89 74.7001 125.666 74.5217 125.504 74.2934C125.346 74.0722 125.262 73.8074 125.262 73.5359H125.991C126.012 73.7733 126.12 73.9944 126.295 74.1568C126.51 74.3382 126.787 74.4304 127.068 74.4145C127.347 74.4302 127.622 74.3431 127.841 74.1697C127.932 74.0928 128.005 73.9964 128.054 73.8876C128.103 73.7788 128.127 73.6603 128.124 73.541C128.131 73.3631 128.072 73.189 127.959 73.0515C127.846 72.9239 127.704 72.8258 127.544 72.7655C127.325 72.683 127.102 72.6125 126.875 72.5542C126.591 72.4849 126.313 72.3945 126.042 72.2837C125.83 72.1904 125.646 72.044 125.506 71.8586C125.35 71.632 125.272 71.3605 125.285 71.0856C125.28 70.816 125.356 70.5512 125.504 70.3256C125.655 70.0985 125.867 69.9196 126.117 69.8103C126.403 69.6851 126.712 69.6236 127.024 69.6299C127.457 69.6116 127.883 69.7416 128.232 69.9983C128.385 70.1147 128.511 70.2622 128.603 70.4309C128.694 70.5997 128.749 70.786 128.763 70.9774H128.011C127.979 70.7659 127.865 70.5754 127.694 70.4466C127.483 70.2858 127.222 70.2046 126.957 70.2173C126.705 70.2067 126.457 70.2852 126.256 70.4389C126.167 70.5151 126.096 70.6106 126.049 70.7182C126.002 70.8258 125.981 70.9426 125.986 71.0598C125.978 71.2311 126.036 71.3987 126.148 71.5288C126.258 71.6502 126.394 71.7438 126.547 71.8019C126.705 71.8663 126.926 71.9359 127.212 72.0183C127.497 72.0921 127.777 72.186 128.049 72.2991C128.263 72.3944 128.45 72.5424 128.591 72.7294C128.753 72.9582 128.833 73.2352 128.817 73.5152C128.818 73.7708 128.748 74.0216 128.614 74.2393C128.468 74.4747 128.259 74.6648 128.011 74.788C127.72 74.9352 127.397 75.0078 127.07 74.9993C126.751 75.0049 126.433 74.9417 126.14 74.8138M32.9405 69.617L31.0339 74.9942H29.3953L27.4861 69.617H28.88L30.2146 73.6879L31.5544 69.6273L32.9405 69.617ZM34.7956 70.6656V71.7555H36.5476V72.7655H34.7956V73.9455H36.7795V74.9942H33.4945V69.617H36.7898V70.6656H34.7956ZM40.3712 74.9942L39.253 72.9639H38.9386V74.9942H37.6298V69.617H39.8275C40.2013 69.607 40.5724 69.6828 40.9122 69.8386C41.1915 69.9706 41.4248 70.1833 41.5821 70.4492C41.7307 70.7115 41.8072 71.0084 41.8037 71.3098C41.8087 71.6537 41.702 71.99 41.4997 72.2682C41.2787 72.5626 40.9645 72.7734 40.6082 72.866L41.8501 74.9942H40.3712ZM38.9386 72.0389H39.7502C39.947 72.0537 40.1416 71.9898 40.2913 71.8611C40.3537 71.7949 40.4018 71.7167 40.4328 71.6311C40.4639 71.5456 40.4771 71.4547 40.4716 71.3639C40.4761 71.2755 40.4625 71.1871 40.4314 71.1043C40.4004 71.0214 40.3527 70.9458 40.2913 70.8821C40.1416 70.7535 39.947 70.6895 39.7502 70.7043H38.9386V72.0389ZM42.7287 70.9156C42.9469 70.5137 43.2748 70.1822 43.6742 69.9597C44.093 69.7267 44.5658 69.6085 45.0449 69.617C45.6218 69.6009 46.1879 69.7757 46.6552 70.1143C47.1028 70.4462 47.4193 70.9251 47.5493 71.4669H46.1374C46.042 71.2581 45.8857 71.083 45.6891 70.9645C45.4896 70.8463 45.2613 70.7857 45.0295 70.7893C44.8486 70.7833 44.6686 70.8173 44.5025 70.889C44.3363 70.9608 44.1881 71.0684 44.0684 71.2041C43.8293 71.523 43.7 71.9109 43.7 72.3094C43.7 72.708 43.8293 73.0959 44.0684 73.4148C44.1881 73.5505 44.3363 73.6581 44.5025 73.7299C44.6686 73.8016 44.8486 73.8356 45.0295 73.8296C45.2608 73.8323 45.4887 73.7727 45.6891 73.657C45.8874 73.5347 46.0438 73.355 46.1374 73.1417H47.5493C47.42 73.6831 47.1033 74.1614 46.6552 74.4917C46.1862 74.8264 45.6209 74.9992 45.0449 74.9839C44.5658 74.9923 44.093 74.8741 43.6742 74.6412C43.2756 74.4199 42.9477 74.0903 42.7287 73.6905C42.5069 73.2597 42.3913 72.7823 42.3913 72.2979C42.3913 71.8134 42.5069 71.336 42.7287 70.9053M49.4688 74.6515C49.0611 74.4261 48.7226 74.0939 48.4897 73.6905C48.2523 73.267 48.1276 72.7897 48.1276 72.3043C48.1276 71.8189 48.2523 71.3416 48.4897 70.9181C48.7239 70.5171 49.0622 70.1868 49.4688 69.9623C49.8853 69.7349 50.3521 69.6158 50.8266 69.6158C51.3011 69.6158 51.7679 69.7349 52.1844 69.9623C52.589 70.1867 52.9249 70.5172 53.1558 70.9181C53.3957 71.3393 53.5185 71.817 53.5113 72.3017C53.5174 72.7882 53.3938 73.2676 53.1532 73.6905C52.9211 74.0927 52.5846 74.4248 52.1793 74.6515C51.7629 74.8763 51.2972 74.994 50.824 74.994C50.3509 74.994 49.8851 74.8763 49.4688 74.6515ZM51.8314 73.4096C52.0786 73.0927 52.2128 72.7023 52.2128 72.3004C52.2128 71.8985 52.0786 71.5082 51.8314 71.1913C51.7043 71.0531 51.5485 70.9443 51.3749 70.8727C51.2013 70.801 51.0142 70.7682 50.8266 70.7764C50.6376 70.7675 50.449 70.7998 50.2737 70.871C50.0984 70.9422 49.9407 71.0506 49.8115 71.1887C49.5676 71.508 49.4355 71.8986 49.4355 72.3004C49.4355 72.7022 49.5676 73.0929 49.8115 73.4122C50.0799 73.679 50.443 73.8288 50.8214 73.8288C51.1999 73.8288 51.563 73.679 51.8314 73.4122M56.9844 74.9967L55.8662 72.9665H55.5519V74.9967H54.2405V69.617H56.4253C56.7991 69.6067 57.1703 69.6825 57.51 69.8386C57.7893 69.9706 58.0227 70.1833 58.1799 70.4492C58.3305 70.7108 58.4079 71.008 58.4041 71.3098C58.4078 71.6535 58.3013 71.9895 58.1001 72.2682C57.8786 72.5621 57.5645 72.7726 57.2086 72.866L58.4479 74.9942L56.9844 74.9967ZM55.5519 72.0415H56.3635C56.4606 72.049 56.5581 72.0372 56.6506 72.0067C56.743 71.9762 56.8285 71.9276 56.902 71.8637C56.9649 71.7979 57.0134 71.7196 57.0444 71.634C57.0755 71.5484 57.0884 71.4573 57.0823 71.3665C57.0875 71.278 57.0741 71.1895 57.043 71.1065C57.012 71.0235 56.9639 70.948 56.902 70.8846C56.8285 70.8208 56.743 70.7722 56.6506 70.7417C56.5581 70.7112 56.4606 70.6993 56.3635 70.7069H55.5519V72.0415ZM61.0295 70.931C61.252 70.5295 61.5798 70.1964 61.9777 69.9674C62.3826 69.7343 62.8426 69.6142 63.3097 69.6196C63.8411 69.6078 64.3642 69.752 64.8144 70.0344C65.2456 70.3162 65.5738 70.7303 65.7497 71.2144H64.9278C64.7947 70.9126 64.575 70.6571 64.2965 70.4801C63.9985 70.303 63.6564 70.2136 63.3097 70.2225C62.9628 70.2184 62.6212 70.3073 62.3204 70.4801C62.0277 70.6537 61.7901 70.9065 61.635 71.2093C61.4705 71.5536 61.3852 71.9304 61.3852 72.312C61.3852 72.6936 61.4705 73.0704 61.635 73.4148C61.7893 73.7182 62.0271 73.9712 62.3204 74.1439C62.6212 74.3167 62.9628 74.4057 63.3097 74.4016C63.6564 74.4104 63.9985 74.3211 64.2965 74.1439C64.5759 73.9703 64.796 73.7161 64.9278 73.4148H65.7497C65.5735 73.8954 65.2451 74.3053 64.8144 74.5819C64.3639 74.8634 63.8408 75.0067 63.3097 74.9942C62.8432 75.0001 62.3835 74.8818 61.9777 74.6515C61.5808 74.4248 61.253 74.0943 61.0295 73.6956C60.8013 73.2701 60.6819 72.7948 60.6819 72.312C60.6819 71.8292 60.8013 71.3539 61.0295 70.9285M67.8186 74.6515C67.4181 74.4246 67.0875 74.0922 66.8627 73.6905C66.6327 73.2651 66.5123 72.7892 66.5123 72.3056C66.5123 71.822 66.6327 71.3461 66.8627 70.9207C67.0882 70.5196 67.4187 70.1873 67.8186 69.9597C68.2298 69.7348 68.691 69.617 69.1597 69.617C69.6284 69.617 70.0895 69.7348 70.5008 69.9597C70.8989 70.1856 71.2277 70.5162 71.4515 70.9156C71.6797 71.3433 71.7991 71.8207 71.7991 72.3056C71.7991 72.7904 71.6797 73.2678 71.4515 73.6956C71.2277 74.095 70.8989 74.4255 70.5008 74.6515C70.0895 74.8763 69.6284 74.9942 69.1597 74.9942C68.691 74.9942 68.2298 74.8763 67.8186 74.6515ZM70.1503 74.1362C70.4472 73.9632 70.6879 73.7082 70.8434 73.4019C71.0096 73.0576 71.0959 72.6802 71.0959 72.2979C71.0959 71.9155 71.0096 71.5382 70.8434 71.1938C70.6858 70.8911 70.4466 70.6386 70.1529 70.4647C69.8472 70.2973 69.5043 70.2096 69.1558 70.2096C68.8073 70.2096 68.4644 70.2973 68.1587 70.4647C67.865 70.6386 67.6259 70.8911 67.4682 71.1938C67.3021 71.5382 67.2158 71.9155 67.2158 72.2979C67.2158 72.6802 67.3021 73.0576 67.4682 73.4019C67.6239 73.709 67.8656 73.9642 68.1639 74.1362C68.4676 74.3052 68.8095 74.3939 69.1571 74.3939C69.5047 74.3939 69.8466 74.3052 70.1503 74.1362ZM76.9265 74.989H76.2257L73.407 70.7146V74.989H72.7062V69.617H73.407L76.2257 73.8837V69.617H76.9265V74.989ZM78.8538 74.8035C78.5959 74.694 78.373 74.5158 78.2096 74.2882C78.051 74.0676 77.9663 73.8024 77.9674 73.5307H78.6992C78.7203 73.7695 78.8296 73.9917 79.0058 74.1542C79.2207 74.3363 79.4975 74.4286 79.7787 74.4119C80.0575 74.4262 80.332 74.3393 80.5517 74.1671C80.6428 74.0896 80.7153 73.9927 80.7639 73.8834C80.8125 73.7742 80.8359 73.6554 80.8325 73.5359C80.8406 73.3578 80.7818 73.1832 80.6676 73.0463C80.5546 72.9188 80.4122 72.8206 80.2528 72.7603C80.0331 72.6763 79.8086 72.6058 79.5803 72.5491C79.2966 72.4786 79.0184 72.3874 78.7481 72.276C78.5359 72.1827 78.3513 72.0363 78.2122 71.8508C78.0549 71.6248 77.9769 71.353 77.9906 71.0779C77.9835 70.804 78.0599 70.5344 78.2096 70.3049C78.3611 70.0785 78.5738 69.8998 78.8228 69.7896C79.1094 69.6644 79.4197 69.6029 79.7323 69.6093C80.1661 69.5912 80.5931 69.7212 80.9433 69.9777C81.096 70.0946 81.2223 70.2425 81.3138 70.4117C81.4052 70.5809 81.4599 70.7676 81.4741 70.9594H80.7192C80.7045 70.8542 80.6689 70.753 80.6145 70.6619C80.5601 70.5707 80.4879 70.4914 80.4022 70.4286C80.1922 70.2658 79.9308 70.1836 79.6654 70.1967C79.4118 70.1858 79.1625 70.2652 78.962 70.4209C78.8741 70.4976 78.8052 70.5935 78.7605 70.7012C78.7158 70.8089 78.6966 70.9255 78.7043 71.0418C78.6972 71.213 78.7552 71.3806 78.8666 71.5107C78.9775 71.6313 79.114 71.7255 79.266 71.7864C79.4232 71.8483 79.6473 71.9204 79.9333 72.0003C80.2188 72.0748 80.4986 72.1695 80.7707 72.2837C80.985 72.3795 81.1718 72.5274 81.3143 72.714C81.475 72.9443 81.5539 73.2219 81.5385 73.5024C81.5389 73.7567 81.4694 74.0063 81.3375 74.2238C81.1913 74.4606 80.9815 74.6517 80.732 74.7752C80.4401 74.9226 80.116 74.9952 79.789 74.9864C79.4693 74.9918 79.1521 74.9286 78.8589 74.8009M85.867 69.6093V70.1813H84.401V74.9864H83.6847V70.189H82.2109V69.617L85.867 69.6093ZM89.5643 74.9864L88.276 72.7887H87.4284V74.9864H86.7275V69.617H88.4615C88.8166 69.6062 89.1693 69.6776 89.4921 69.8257C89.753 69.9473 89.9719 70.1437 90.1208 70.39C90.2633 70.6354 90.3355 70.9153 90.3295 71.199C90.3344 71.5517 90.222 71.8961 90.01 72.1781C89.7693 72.4772 89.4275 72.6779 89.049 72.7423L90.3991 74.9942L89.5643 74.9864ZM87.4335 72.2244H88.4641C88.6186 72.2365 88.7739 72.2179 88.9211 72.1697C89.0684 72.1215 89.2047 72.0447 89.3221 71.9436C89.4189 71.8446 89.4943 71.7267 89.5435 71.5972C89.5927 71.4678 89.6147 71.3296 89.6081 71.1913C89.6163 71.0545 89.5953 70.9176 89.5464 70.7897C89.4975 70.6617 89.4219 70.5457 89.3247 70.4492C89.0802 70.2585 88.7731 70.1666 88.4641 70.1916H87.4335V72.2244ZM92.1021 69.6093V72.9768C92.0866 73.1671 92.1094 73.3587 92.1691 73.5402C92.2289 73.7216 92.3244 73.8892 92.45 74.0331C92.7217 74.2547 93.0616 74.3758 93.4123 74.3758C93.7629 74.3758 94.1028 74.2547 94.3746 74.0331C94.5002 73.8892 94.5957 73.7216 94.6554 73.5402C94.7152 73.3587 94.7379 73.1671 94.7224 72.9768V69.617H95.4181V72.9665C95.4337 73.3563 95.3447 73.7433 95.1604 74.0872C94.9928 74.3793 94.7415 74.6144 94.439 74.7623C94.1187 74.9083 93.7707 74.9838 93.4187 74.9838C93.0667 74.9838 92.7188 74.9083 92.3984 74.7623C92.0967 74.6142 91.8463 74.3791 91.6796 74.0872C91.4964 73.7429 91.4076 73.3562 91.4219 72.9665V69.617L92.1021 69.6093ZM96.6651 70.9207C96.8876 70.5192 97.2154 70.1861 97.6133 69.9571C98.0166 69.7281 98.4738 69.6107 98.9376 69.617C99.4689 69.6052 99.992 69.7494 100.442 70.0318C100.873 70.3136 101.202 70.7277 101.378 71.2119H100.556C100.423 70.9095 100.203 70.6538 99.9244 70.4776C99.6265 70.3 99.2843 70.2107 98.9376 70.2199C98.5915 70.2155 98.2506 70.3045 97.9508 70.4776C97.6572 70.6507 97.4187 70.9035 97.2629 71.2067C97.0984 71.5511 97.013 71.9278 97.013 72.3094C97.013 72.6911 97.0984 73.0678 97.2629 73.4122C97.4174 73.7163 97.6562 73.9694 97.9508 74.1413C98.2506 74.3144 98.5915 74.4034 98.9376 74.399C99.2843 74.4083 99.6265 74.3189 99.9244 74.1413C100.204 73.9685 100.425 73.714 100.556 73.4122H101.378C101.201 73.8928 100.873 74.3027 100.442 74.5793C99.9918 74.8608 99.4686 75.0042 98.9376 74.9916C98.471 74.9975 98.0113 74.8793 97.6055 74.6489C97.2086 74.4222 96.8809 74.0918 96.6574 73.693C96.4291 73.2676 96.3097 72.7923 96.3097 72.3094C96.3097 71.8266 96.4291 71.3513 96.6574 70.9259M102.488 70.9259C102.71 70.5244 103.038 70.1912 103.436 69.9623C103.841 69.7292 104.301 69.6091 104.768 69.6144C105.3 69.6026 105.823 69.7469 106.273 70.0292C106.704 70.311 107.032 70.7251 107.208 71.2093H106.386C106.253 70.9075 106.033 70.6519 105.755 70.475C105.457 70.2978 105.115 70.2085 104.768 70.2173C104.421 70.2132 104.08 70.3022 103.779 70.475C103.486 70.6485 103.249 70.9013 103.093 71.2041C102.929 71.5485 102.844 71.9253 102.844 72.3069C102.844 72.6885 102.929 73.0653 103.093 73.4096C103.248 73.713 103.486 73.966 103.779 74.1388C104.08 74.3116 104.421 74.4005 104.768 74.3964C105.115 74.4053 105.457 74.3159 105.755 74.1388C106.034 73.9652 106.254 73.7109 106.386 73.4096H107.208C107.032 73.8902 106.704 74.3001 106.273 74.5768C105.822 74.8583 105.299 75.0016 104.768 74.989C104.302 74.9949 103.842 74.8767 103.436 74.6463C103.039 74.4196 102.712 74.0892 102.488 73.6905C102.26 73.265 102.14 72.7897 102.14 72.3069C102.14 71.8241 102.26 71.3488 102.488 70.9233M108.929 74.989H108.213V69.617H108.914L108.929 74.989ZM111.171 74.6463C110.77 74.4201 110.439 74.0875 110.215 73.6853C109.985 73.2599 109.864 72.784 109.864 72.3004C109.864 71.8169 109.985 71.3409 110.215 70.9156C110.44 70.5138 110.77 70.1815 111.171 69.9545C111.582 69.7297 112.042 69.6118 112.511 69.6118C112.979 69.6118 113.44 69.7297 113.85 69.9545C114.25 70.1797 114.58 70.5104 114.804 70.9104C115.032 71.3382 115.151 71.8156 115.151 72.3004C115.151 72.7853 115.032 73.2627 114.804 73.6905C114.58 74.0905 114.25 74.4212 113.85 74.6463C113.44 74.8712 112.979 74.989 112.511 74.989C112.042 74.989 111.582 74.8712 111.171 74.6463ZM113.49 74.131C113.787 73.9576 114.028 73.7028 114.185 73.3967C114.351 73.0524 114.438 72.675 114.438 72.2927C114.438 71.9104 114.351 71.533 114.185 71.1887C114.027 70.8865 113.788 70.6342 113.495 70.4595C113.189 70.2922 112.846 70.2045 112.498 70.2045C112.149 70.2045 111.806 70.2922 111.501 70.4595C111.206 70.6323 110.967 70.8852 110.81 71.1887C110.642 71.5325 110.555 71.9101 110.555 72.2927C110.555 72.6753 110.642 73.0529 110.81 73.3967C110.966 73.7031 111.206 73.9581 111.503 74.131C111.807 74.3 112.149 74.3887 112.496 74.3887C112.844 74.3887 113.186 74.3 113.49 74.131ZM120.268 74.9839H119.568L116.749 70.7094V74.9839H116.046V69.617H116.749L119.568 73.8837V69.617H120.268V74.9839ZM122.162 70.1838V71.9874H124.12V72.5645H122.162V74.4145H124.352V74.9916H121.464V69.617H124.355V70.1941L122.162 70.1838Z" fill="#1D1D1B"/>
<path d="M48.7834 0L27.4861 64.4975H42.5354L65.4122 0H48.7834Z" fill="#B57231"/>
</svg>
