<svg width="129" height="65" viewBox="0 0 129 65" fill="none" xmlns="http://www.w3.org/2000/svg">
<path d="M105.549 30.1992H112.042C113.96 30.1992 115.4 30.6681 116.36 31.6059C117.32 32.5438 117.8 33.832 117.8 35.4707C117.8 37.1883 117.32 38.5152 116.36 39.4514C115.4 40.3875 113.96 40.8573 112.042 40.8607H105.549V30.1992ZM28.7692 36.7125L21.1788 59.7155L0 0H16.7189L28.7692 36.7125ZM60.3313 33.5744L64.817 20.9263C65.9528 20.7738 67.0977 20.6989 68.2438 20.7022C73.3487 20.7022 77.7184 22.0497 81.353 24.7447C84.9876 27.4397 87.4172 31.1155 88.6419 35.7721H77.1301C76.3552 34.0685 75.0847 32.6382 73.4844 31.6678C71.8608 30.7162 70.0068 30.2295 68.1252 30.261C64.9269 30.261 62.3298 31.3654 60.3339 33.5744M77.1301 49.4946H88.6445C87.4215 54.1477 84.9919 57.8115 81.3556 60.4859C77.7193 63.1603 73.3495 64.4975 68.2463 64.4975C64.0827 64.4975 60.3562 63.57 57.0669 61.7149C55.1005 60.6128 53.3369 59.1829 51.8521 57.4869L57.2885 42.1618C57.2885 42.319 57.2885 42.4736 57.2885 42.6333C57.2885 46.3899 58.289 49.3915 60.2901 51.6382C62.2912 53.8849 64.9055 55.0074 68.133 55.0057C70.0152 55.0366 71.8695 54.5481 73.4921 53.5938C75.0921 52.6253 76.3627 51.1967 77.1378 49.4946M128.825 64.5001L118.903 47.472C122.046 46.5307 124.424 44.9376 126.037 42.6926C127.644 40.4674 128.492 37.7846 128.457 35.0404C128.487 32.6262 127.874 30.2475 126.681 28.1483C125.496 26.0871 123.71 24.4639 121.322 23.2787C118.935 22.0935 116.046 21.5017 112.655 21.5035H95.0728V64.5001H105.546V48.2681H108.058L117.001 64.5001H128.825Z" fill="#1D1D1B"/>
<path d="M48.7835 0L27.4861 64.4975H42.5355L65.4122 0H48.7835Z" fill="#B57231"/>
</svg>
